<?xml version="1.0" encoding="utf-8" standalone="no"?>
<!DOCTYPE svg PUBLIC "-//W3C//DTD SVG 1.1//EN"
  "http://www.w3.org/Graphics/SVG/1.1/DTD/svg11.dtd">
<svg xmlns:xlink="http://www.w3.org/1999/xlink" width="928.8pt" height="324pt" viewBox="0 0 928.8 324" xmlns="http://www.w3.org/2000/svg" version="1.1">
 <metadata>
  <rdf:RDF xmlns:dc="http://purl.org/dc/elements/1.1/" xmlns:cc="http://creativecommons.org/ns#" xmlns:rdf="http://www.w3.org/1999/02/22-rdf-syntax-ns#">
   <cc:Work>
    <dc:type rdf:resource="http://purl.org/dc/dcmitype/StillImage"/>
    <dc:date>2026-09-11T16:27:59.313882</dc:date>
    <dc:format>image/svg+xml</dc:format>
    <dc:creator>
     <cc:Agent>
      <dc:title>Matplotlib v3.9.4, https://matplotlib.org/</dc:title>
     </cc:Agent>
    </dc:creator>
   </cc:Work>
  </rdf:RDF>
 </metadata>
 <defs>
  <style type="text/css">*{stroke-linejoin: round; stroke-linecap: butt}</style>
 </defs>
 <g id="figure_1">
  <g id="patch_1">
   <path d="M 0 324 
L 928.8 324 
L 928.8 0 
L 0 0 
z
" style="fill: #ffffff"/>
  </g>
  <g id="axes_1">
   <g id="patch_2">
    <path d="M 21.132427 311.826537 
L 306.47208 311.826537 
L 306.47208 13.5169 
L 21.132427 13.5169 
z
" style="fill: #ffffff"/>
   </g>
   <g id="matplotlib.axis_1">
    <g id="xtick_1">
     <g id="line2d_1">
      <path d="M 34.102412 311.826537 
L 34.102412 13.5169 
" clip-path="url(#p636ffb8ea9)" style="fill: none; stroke: #b0b0b0; stroke-opacity: 0.12; stroke-width: 0.8; stroke-linecap: square"/>
     </g>
     <g id="line2d_2">
      <defs>
       <path id="m376874ac4f" d="M 0 0 
L 0 3.5 
" style="stroke: #000000; stroke-width: 0.8"/>
      </defs>
      <g>
       <use xlink:href="#m376874ac4f" x="34.102412" y="311.826537" style="stroke: #000000; stroke-width: 0.8"/>
      </g>
     </g>
     <g id="text_1">
      <!-- 0.30 -->
      <g transform="translate(26.309443 324.145443) scale(0.07 -0.07)">
       <defs>
        <path id="DejaVuSans-30" d="M 2034 4250 
Q 1547 4250 1301 3770 
Q 1056 3291 1056 2328 
Q 1056 1369 1301 889 
Q 1547 409 2034 409 
Q 2525 409 2770 889 
Q 3016 1369 3016 2328 
Q 3016 3291 2770 3770 
Q 2525 4250 2034 4250 
z
M 2034 4750 
Q 2819 4750 3233 4129 
Q 3647 3509 3647 2328 
Q 3647 1150 3233 529 
Q 2819 -91 2034 -91 
Q 1250 -91 836 529 
Q 422 1150 422 2328 
Q 422 3509 836 4129 
Q 1250 4750 2034 4750 
z
" transform="scale(0.015625)"/>
        <path id="DejaVuSans-2e" d="M 684 794 
L 1344 794 
L 1344 0 
L 684 0 
L 684 794 
z
" transform="scale(0.015625)"/>
        <path id="DejaVuSans-33" d="M 2597 2516 
Q 3050 2419 3304 2112 
Q 3559 1806 3559 1356 
Q 3559 666 3084 287 
Q 2609 -91 1734 -91 
Q 1441 -91 1130 -33 
Q 819 25 488 141 
L 488 750 
Q 750 597 1062 519 
Q 1375 441 1716 441 
Q 2309 441 2620 675 
Q 2931 909 2931 1356 
Q 2931 1769 2642 2001 
Q 2353 2234 1838 2234 
L 1294 2234 
L 1294 2753 
L 1863 2753 
Q 2328 2753 2575 2939 
Q 2822 3125 2822 3475 
Q 2822 3834 2567 4026 
Q 2313 4219 1838 4219 
Q 1578 4219 1281 4162 
Q 984 4106 628 3988 
L 628 4550 
Q 988 4650 1302 4700 
Q 1616 4750 1894 4750 
Q 2613 4750 3031 4423 
Q 3450 4097 3450 3541 
Q 3450 3153 3228 2886 
Q 3006 2619 2597 2516 
z
" transform="scale(0.015625)"/>
       </defs>
       <use xlink:href="#DejaVuSans-30"/>
       <use xlink:href="#DejaVuSans-2e" x="63.623047"/>
       <use xlink:href="#DejaVuSans-33" x="95.410156"/>
       <use xlink:href="#DejaVuSans-30" x="159.033203"/>
      </g>
     </g>
    </g>
    <g id="xtick_2">
     <g id="line2d_3">
      <path d="M 66.527372 311.826537 
L 66.527372 13.5169 
" clip-path="url(#p636ffb8ea9)" style="fill: none; stroke: #b0b0b0; stroke-opacity: 0.12; stroke-width: 0.8; stroke-linecap: square"/>
     </g>
     <g id="line2d_4">
      <g>
       <use xlink:href="#m376874ac4f" x="66.527372" y="311.826537" style="stroke: #000000; stroke-width: 0.8"/>
      </g>
     </g>
     <g id="text_2">
      <!-- 0.35 -->
      <g transform="translate(58.734403 324.145443) scale(0.07 -0.07)">
       <defs>
        <path id="DejaVuSans-35" d="M 691 4666 
L 3169 4666 
L 3169 4134 
L 1269 4134 
L 1269 2991 
Q 1406 3038 1543 3061 
Q 1681 3084 1819 3084 
Q 2600 3084 3056 2656 
Q 3513 2228 3513 1497 
Q 3513 744 3044 326 
Q 2575 -91 1722 -91 
Q 1428 -91 1123 -41 
Q 819 9 494 109 
L 494 744 
Q 775 591 1075 516 
Q 1375 441 1709 441 
Q 2250 441 2565 725 
Q 2881 1009 2881 1497 
Q 2881 1984 2565 2268 
Q 2250 2553 1709 2553 
Q 1456 2553 1204 2497 
Q 953 2441 691 2322 
L 691 4666 
z
" transform="scale(0.015625)"/>
       </defs>
       <use xlink:href="#DejaVuSans-30"/>
       <use xlink:href="#DejaVuSans-2e" x="63.623047"/>
       <use xlink:href="#DejaVuSans-33" x="95.410156"/>
       <use xlink:href="#DejaVuSans-35" x="159.033203"/>
      </g>
     </g>
    </g>
    <g id="xtick_3">
     <g id="line2d_5">
      <path d="M 98.952333 311.826537 
L 98.952333 13.5169 
" clip-path="url(#p636ffb8ea9)" style="fill: none; stroke: #b0b0b0; stroke-opacity: 0.12; stroke-width: 0.8; stroke-linecap: square"/>
     </g>
     <g id="line2d_6">
      <g>
       <use xlink:href="#m376874ac4f" x="98.952333" y="311.826537" style="stroke: #000000; stroke-width: 0.8"/>
      </g>
     </g>
     <g id="text_3">
      <!-- 0.40 -->
      <g transform="translate(91.159364 324.145443) scale(0.07 -0.07)">
       <defs>
        <path id="DejaVuSans-34" d="M 2419 4116 
L 825 1625 
L 2419 1625 
L 2419 4116 
z
M 2253 4666 
L 3047 4666 
L 3047 1625 
L 3713 1625 
L 3713 1100 
L 3047 1100 
L 3047 0 
L 2419 0 
L 2419 1100 
L 313 1100 
L 313 1709 
L 2253 4666 
z
" transform="scale(0.015625)"/>
       </defs>
       <use xlink:href="#DejaVuSans-30"/>
       <use xlink:href="#DejaVuSans-2e" x="63.623047"/>
       <use xlink:href="#DejaVuSans-34" x="95.410156"/>
       <use xlink:href="#DejaVuSans-30" x="159.033203"/>
      </g>
     </g>
    </g>
    <g id="xtick_4">
     <g id="line2d_7">
      <path d="M 131.377293 311.826537 
L 131.377293 13.5169 
" clip-path="url(#p636ffb8ea9)" style="fill: none; stroke: #b0b0b0; stroke-opacity: 0.12; stroke-width: 0.8; stroke-linecap: square"/>
     </g>
     <g id="line2d_8">
      <g>
       <use xlink:href="#m376874ac4f" x="131.377293" y="311.826537" style="stroke: #000000; stroke-width: 0.8"/>
      </g>
     </g>
     <g id="text_4">
      <!-- 0.45 -->
      <g transform="translate(123.584324 324.145443) scale(0.07 -0.07)">
       <use xlink:href="#DejaVuSans-30"/>
       <use xlink:href="#DejaVuSans-2e" x="63.623047"/>
       <use xlink:href="#DejaVuSans-34" x="95.410156"/>
       <use xlink:href="#DejaVuSans-35" x="159.033203"/>
      </g>
     </g>
    </g>
    <g id="xtick_5">
     <g id="line2d_9">
      <path d="M 163.802254 311.826537 
L 163.802254 13.5169 
" clip-path="url(#p636ffb8ea9)" style="fill: none; stroke: #b0b0b0; stroke-opacity: 0.12; stroke-width: 0.8; stroke-linecap: square"/>
     </g>
     <g id="line2d_10">
      <g>
       <use xlink:href="#m376874ac4f" x="163.802254" y="311.826537" style="stroke: #000000; stroke-width: 0.8"/>
      </g>
     </g>
     <g id="text_5">
      <!-- 0.50 -->
      <g transform="translate(156.009285 324.145443) scale(0.07 -0.07)">
       <use xlink:href="#DejaVuSans-30"/>
       <use xlink:href="#DejaVuSans-2e" x="63.623047"/>
       <use xlink:href="#DejaVuSans-35" x="95.410156"/>
       <use xlink:href="#DejaVuSans-30" x="159.033203"/>
      </g>
     </g>
    </g>
    <g id="xtick_6">
     <g id="line2d_11">
      <path d="M 196.227214 311.826537 
L 196.227214 13.5169 
" clip-path="url(#p636ffb8ea9)" style="fill: none; stroke: #b0b0b0; stroke-opacity: 0.12; stroke-width: 0.8; stroke-linecap: square"/>
     </g>
     <g id="line2d_12">
      <g>
       <use xlink:href="#m376874ac4f" x="196.227214" y="311.826537" style="stroke: #000000; stroke-width: 0.8"/>
      </g>
     </g>
     <g id="text_6">
      <!-- 0.55 -->
      <g transform="translate(188.434246 324.145443) scale(0.07 -0.07)">
       <use xlink:href="#DejaVuSans-30"/>
       <use xlink:href="#DejaVuSans-2e" x="63.623047"/>
       <use xlink:href="#DejaVuSans-35" x="95.410156"/>
       <use xlink:href="#DejaVuSans-35" x="159.033203"/>
      </g>
     </g>
    </g>
    <g id="xtick_7">
     <g id="line2d_13">
      <path d="M 228.652175 311.826537 
L 228.652175 13.5169 
" clip-path="url(#p636ffb8ea9)" style="fill: none; stroke: #b0b0b0; stroke-opacity: 0.12; stroke-width: 0.8; stroke-linecap: square"/>
     </g>
     <g id="line2d_14">
      <g>
       <use xlink:href="#m376874ac4f" x="228.652175" y="311.826537" style="stroke: #000000; stroke-width: 0.8"/>
      </g>
     </g>
     <g id="text_7">
      <!-- 0.60 -->
      <g transform="translate(220.859206 324.145443) scale(0.07 -0.07)">
       <defs>
        <path id="DejaVuSans-36" d="M 2113 2584 
Q 1688 2584 1439 2293 
Q 1191 2003 1191 1497 
Q 1191 994 1439 701 
Q 1688 409 2113 409 
Q 2538 409 2786 701 
Q 3034 994 3034 1497 
Q 3034 2003 2786 2293 
Q 2538 2584 2113 2584 
z
M 3366 4563 
L 3366 3988 
Q 3128 4100 2886 4159 
Q 2644 4219 2406 4219 
Q 1781 4219 1451 3797 
Q 1122 3375 1075 2522 
Q 1259 2794 1537 2939 
Q 1816 3084 2150 3084 
Q 2853 3084 3261 2657 
Q 3669 2231 3669 1497 
Q 3669 778 3244 343 
Q 2819 -91 2113 -91 
Q 1303 -91 875 529 
Q 447 1150 447 2328 
Q 447 3434 972 4092 
Q 1497 4750 2381 4750 
Q 2619 4750 2861 4703 
Q 3103 4656 3366 4563 
z
" transform="scale(0.015625)"/>
       </defs>
       <use xlink:href="#DejaVuSans-30"/>
       <use xlink:href="#DejaVuSans-2e" x="63.623047"/>
       <use xlink:href="#DejaVuSans-36" x="95.410156"/>
       <use xlink:href="#DejaVuSans-30" x="159.033203"/>
      </g>
     </g>
    </g>
    <g id="xtick_8">
     <g id="line2d_15">
      <path d="M 261.077135 311.826537 
L 261.077135 13.5169 
" clip-path="url(#p636ffb8ea9)" style="fill: none; stroke: #b0b0b0; stroke-opacity: 0.12; stroke-width: 0.8; stroke-linecap: square"/>
     </g>
     <g id="line2d_16">
      <g>
       <use xlink:href="#m376874ac4f" x="261.077135" y="311.826537" style="stroke: #000000; stroke-width: 0.8"/>
      </g>
     </g>
     <g id="text_8">
      <!-- 0.65 -->
      <g transform="translate(253.284167 324.145443) scale(0.07 -0.07)">
       <use xlink:href="#DejaVuSans-30"/>
       <use xlink:href="#DejaVuSans-2e" x="63.623047"/>
       <use xlink:href="#DejaVuSans-36" x="95.410156"/>
       <use xlink:href="#DejaVuSans-35" x="159.033203"/>
      </g>
     </g>
    </g>
    <g id="xtick_9">
     <g id="line2d_17">
      <path d="M 293.502096 311.826537 
L 293.502096 13.5169 
" clip-path="url(#p636ffb8ea9)" style="fill: none; stroke: #b0b0b0; stroke-opacity: 0.12; stroke-width: 0.8; stroke-linecap: square"/>
     </g>
     <g id="line2d_18">
      <g>
       <use xlink:href="#m376874ac4f" x="293.502096" y="311.826537" style="stroke: #000000; stroke-width: 0.8"/>
      </g>
     </g>
     <g id="text_9">
      <!-- 0.70 -->
      <g transform="translate(285.709127 324.145443) scale(0.07 -0.07)">
       <defs>
        <path id="DejaVuSans-37" d="M 525 4666 
L 3525 4666 
L 3525 4397 
L 1831 0 
L 1172 0 
L 2766 4134 
L 525 4134 
L 525 4666 
z
" transform="scale(0.015625)"/>
       </defs>
       <use xlink:href="#DejaVuSans-30"/>
       <use xlink:href="#DejaVuSans-2e" x="63.623047"/>
       <use xlink:href="#DejaVuSans-37" x="95.410156"/>
       <use xlink:href="#DejaVuSans-30" x="159.033203"/>
      </g>
     </g>
    </g>
   </g>
   <g id="matplotlib.axis_2">
    <g id="ytick_1">
     <g id="line2d_19">
      <path d="M 21.132427 298.856553 
L 306.47208 298.856553 
" clip-path="url(#p636ffb8ea9)" style="fill: none; stroke: #b0b0b0; stroke-opacity: 0.12; stroke-width: 0.8; stroke-linecap: square"/>
     </g>
     <g id="line2d_20">
      <defs>
       <path id="mcf68c06ed4" d="M 0 0 
L -3.5 0 
" style="stroke: #000000; stroke-width: 0.8"/>
      </defs>
      <g>
       <use xlink:href="#mcf68c06ed4" x="21.132427" y="298.856553" style="stroke: #000000; stroke-width: 0.8"/>
      </g>
     </g>
     <g id="text_10">
      <!-- 0.3 -->
      <g transform="translate(3.00024 301.516006) scale(0.07 -0.07)">
       <use xlink:href="#DejaVuSans-30"/>
       <use xlink:href="#DejaVuSans-2e" x="63.623047"/>
       <use xlink:href="#DejaVuSans-33" x="95.410156"/>
      </g>
     </g>
    </g>
    <g id="ytick_2">
     <g id="line2d_21">
      <path d="M 21.132427 234.006632 
L 306.47208 234.006632 
" clip-path="url(#p636ffb8ea9)" style="fill: none; stroke: #b0b0b0; stroke-opacity: 0.12; stroke-width: 0.8; stroke-linecap: square"/>
     </g>
     <g id="line2d_22">
      <g>
       <use xlink:href="#mcf68c06ed4" x="21.132427" y="234.006632" style="stroke: #000000; stroke-width: 0.8"/>
      </g>
     </g>
     <g id="text_11">
      <!-- 0.4 -->
      <g transform="translate(3.00024 236.666085) scale(0.07 -0.07)">
       <use xlink:href="#DejaVuSans-30"/>
       <use xlink:href="#DejaVuSans-2e" x="63.623047"/>
       <use xlink:href="#DejaVuSans-34" x="95.410156"/>
      </g>
     </g>
    </g>
    <g id="ytick_3">
     <g id="line2d_23">
      <path d="M 21.132427 169.156711 
L 306.47208 169.156711 
" clip-path="url(#p636ffb8ea9)" style="fill: none; stroke: #b0b0b0; stroke-opacity: 0.12; stroke-width: 0.8; stroke-linecap: square"/>
     </g>
     <g id="line2d_24">
      <g>
       <use xlink:href="#mcf68c06ed4" x="21.132427" y="169.156711" style="stroke: #000000; stroke-width: 0.8"/>
      </g>
     </g>
     <g id="text_12">
      <!-- 0.5 -->
      <g transform="translate(3.00024 171.816164) scale(0.07 -0.07)">
       <use xlink:href="#DejaVuSans-30"/>
       <use xlink:href="#DejaVuSans-2e" x="63.623047"/>
       <use xlink:href="#DejaVuSans-35" x="95.410156"/>
      </g>
     </g>
    </g>
    <g id="ytick_4">
     <g id="line2d_25">
      <path d="M 21.132427 104.30679 
L 306.47208 104.30679 
" clip-path="url(#p636ffb8ea9)" style="fill: none; stroke: #b0b0b0; stroke-opacity: 0.12; stroke-width: 0.8; stroke-linecap: square"/>
     </g>
     <g id="line2d_26">
      <g>
       <use xlink:href="#mcf68c06ed4" x="21.132427" y="104.30679" style="stroke: #000000; stroke-width: 0.8"/>
      </g>
     </g>
     <g id="text_13">
      <!-- 0.6 -->
      <g transform="translate(3.00024 106.966243) scale(0.07 -0.07)">
       <use xlink:href="#DejaVuSans-30"/>
       <use xlink:href="#DejaVuSans-2e" x="63.623047"/>
       <use xlink:href="#DejaVuSans-36" x="95.410156"/>
      </g>
     </g>
    </g>
    <g id="ytick_5">
     <g id="line2d_27">
      <path d="M 21.132427 39.456869 
L 306.47208 39.456869 
" clip-path="url(#p636ffb8ea9)" style="fill: none; stroke: #b0b0b0; stroke-opacity: 0.12; stroke-width: 0.8; stroke-linecap: square"/>
     </g>
     <g id="line2d_28">
      <g>
       <use xlink:href="#mcf68c06ed4" x="21.132427" y="39.456869" style="stroke: #000000; stroke-width: 0.8"/>
      </g>
     </g>
     <g id="text_14">
      <!-- 0.7 -->
      <g transform="translate(3.00024 42.116322) scale(0.07 -0.07)">
       <use xlink:href="#DejaVuSans-30"/>
       <use xlink:href="#DejaVuSans-2e" x="63.623047"/>
       <use xlink:href="#DejaVuSans-37" x="95.410156"/>
      </g>
     </g>
    </g>
   </g>
   <g id="line2d_29">
    <path d="M 221.105981 199.298354 
L 220.25811 198.121314 
L 219.233016 197.065444 
L 218.03826 196.138531 
L 216.682653 195.347411 
L 214.949302 194.616987 
L 213.035647 194.078545 
L 210.960118 193.73727 
L 208.742703 193.596449 
L 206.404757 193.657438 
L 203.658568 193.96647 
L 200.82182 194.526354 
L 197.929083 195.330267 
L 195.015606 196.368414 
L 192.116894 197.628143 
L 189.26827 199.094103 
L 186.504449 200.748429 
L 183.85911 202.570962 
L 181.364489 204.539493 
L 179.050987 206.630033 
L 176.946795 208.817106 
L 175.077555 211.07406 
L 173.466046 213.373393 
L 172.131906 215.687084 
L 171.19208 217.732957 
L 170.493356 219.748193 
L 170.042462 221.713383 
L 169.843743 223.609601 
L 169.89911 225.418587 
L 170.155628 226.916172 
L 170.604419 228.322571 
L 171.242172 229.627413 
L 172.064184 230.821074 
L 173.064393 231.894752 
L 174.235422 232.840529 
L 175.568636 233.651429 
L 177.054202 234.321473 
L 178.924444 234.90847 
L 180.961321 235.29942 
L 183.145217 235.490557 
L 185.455099 235.480042 
L 188.176572 235.227375 
L 190.99615 234.722753 
L 193.879475 233.972324 
L 196.791409 232.985234 
L 199.696468 231.773512 
L 202.55925 230.351922 
L 205.34487 228.73779 
L 208.019382 226.950785 
L 210.550193 225.012683 
L 212.906464 222.947103 
L 215.05948 220.779215 
L 216.983005 218.535437 
L 218.653599 216.243113 
L 220.050904 213.930177 
L 221.049681 211.879716 
L 221.809403 209.854987 
L 222.322756 207.875489 
L 222.584794 205.960287 
L 222.592994 204.127824 
L 222.39182 202.606187 
L 221.997688 201.172646 
L 221.413505 199.837772 
L 221.105981 199.298354 
L 221.105981 199.298354 
" clip-path="url(#p636ffb8ea9)" style="fill: none; stroke-dasharray: 6.29,2.72; stroke-dashoffset: 0; stroke: #263747; stroke-width: 1.7"/>
   </g>
   <g id="line2d_30">
    <path d="M 263.509119 143.950455 
L 263.186186 142.932268 
L 262.647678 141.980324 
L 261.90928 141.112705 
L 260.993328 140.343642 
L 259.544832 139.487204 
L 257.908514 138.829792 
L 256.169561 138.360779 
L 253.982313 137.994569 
L 248.146792 137.224686 
L 247.33508 136.795854 
L 246.730903 136.16175 
L 246.296397 135.294373 
L 245.912391 133.872617 
L 244.551464 127.516547 
L 243.909164 125.836328 
L 243.086327 124.287708 
L 242.082339 122.955521 
L 241.219887 122.143961 
L 240.277373 121.522472 
L 239.271627 121.110764 
L 238.222531 120.921436 
L 237.151863 120.959395 
L 236.082059 121.221608 
L 235.034937 121.697198 
L 234.030472 122.367894 
L 232.786378 123.521801 
L 231.676972 124.903861 
L 230.716046 126.428388 
L 229.717545 128.39568 
L 227.351465 133.394537 
L 226.703332 134.060749 
L 225.928612 134.464606 
L 224.987683 134.631344 
L 223.541613 134.576335 
L 216.676229 133.894388 
L 214.885053 134.015447 
L 213.175335 134.354097 
L 211.627346 134.934264 
L 210.618042 135.531218 
L 209.769969 136.261512 
L 209.105992 137.114147 
L 208.642958 138.073192 
L 208.390832 139.118743 
L 208.352146 140.228053 
L 208.521764 141.3768 
L 208.886995 142.540394 
L 209.64312 144.074533 
L 210.647164 145.544349 
L 212.129261 147.235194 
L 214.01037 149.000806 
L 216.82796 151.572544 
L 217.429882 152.39446 
L 217.747906 153.226712 
L 217.779081 154.117111 
L 217.544743 155.108546 
L 216.946746 156.538985 
L 214.746889 161.351209 
L 214.090388 163.503776 
L 213.796525 165.245651 
L 213.767863 166.932911 
L 213.942053 168.120136 
L 214.292112 169.208043 
L 214.81784 170.169956 
L 215.512287 170.982819 
L 216.36226 171.628398 
L 217.349114 172.094274 
L 218.449782 172.374583 
L 219.637998 172.470465 
L 220.885632 172.390186 
L 222.592262 172.036307 
L 224.289188 171.450293 
L 226.311993 170.498628 
L 229.147664 168.850598 
L 231.155997 167.738431 
L 232.133668 167.394513 
L 233.029338 167.320725 
L 233.886999 167.537053 
L 234.753988 168.038938 
L 235.919392 169.021614 
L 240.128113 172.859572 
L 241.606864 173.889552 
L 243.166893 174.730491 
L 244.762132 175.308836 
L 245.948487 175.535431 
L 247.098154 175.56571 
L 248.185619 175.390622 
L 249.186552 175.008648 
L 250.079106 174.425728 
L 250.845132 173.654863 
L 251.471225 172.715402 
L 251.94956 171.632051 
L 252.278457 170.433666 
L 252.493664 168.711753 
L 252.481167 166.919567 
L 252.21868 164.695125 
L 251.619554 161.832894 
L 251.074221 159.175131 
L 251.02866 158.121474 
L 251.210291 157.23208 
L 251.653797 156.472615 
L 252.371797 155.797507 
L 253.63614 154.993206 
L 258.925661 151.957047 
L 260.3447 150.847876 
L 261.595841 149.605148 
L 262.596482 148.252245 
L 263.140642 147.187203 
L 263.482884 146.100527 
L 263.608179 145.014024 
L 263.509119 143.950455 
L 263.509119 143.950455 
" clip-path="url(#p636ffb8ea9)" style="fill: none; stroke-dasharray: 6.29,2.72; stroke-dashoffset: 0; stroke: #263747; stroke-width: 1.7"/>
   </g>
   <g id="line2d_31">
    <path d="M 147.589773 123.761766 
L 147.457988 120.183774 
L 147.063347 116.625171 
L 146.407987 113.105243 
L 145.495462 109.643062 
L 144.330715 106.257393 
L 142.920058 102.966581 
L 141.271137 99.78846 
L 139.392887 96.740252 
L 137.295485 93.838476 
L 134.990299 91.098857 
L 132.48982 88.536242 
L 129.807599 86.164516 
L 126.95817 83.996533 
L 123.956974 82.044042 
L 120.820277 80.317622 
L 117.565076 78.82663 
L 114.20901 77.579145 
L 110.770267 76.581929 
L 107.267481 75.840383 
L 103.719636 75.358528 
L 100.145955 75.138974 
L 96.565807 75.182911 
L 92.998591 75.490102 
L 89.463639 76.05888 
L 85.980107 76.886165 
L 82.566872 77.967472 
L 79.242432 79.296943 
L 76.024802 80.867373 
L 72.931418 82.670251 
L 69.979043 84.695807 
L 67.183677 86.933066 
L 64.560469 89.369902 
L 62.123632 91.993111 
L 59.886374 94.788476 
L 57.860817 97.740851 
L 56.057939 100.834235 
L 54.48751 104.051866 
L 53.158039 107.376306 
L 52.076731 110.78954 
L 51.249447 114.273072 
L 50.680668 117.808024 
L 50.373478 121.37524 
L 50.329541 124.955389 
L 50.549095 128.529069 
L 51.03095 132.076915 
L 51.772495 135.5797 
L 52.769712 139.018443 
L 54.017197 142.374509 
L 55.508189 145.629711 
L 57.234608 148.766408 
L 59.1871 151.767603 
L 61.355083 154.617032 
L 63.726808 157.299254 
L 66.289424 159.799733 
L 69.029043 162.104919 
L 71.930818 164.20232 
L 74.979026 166.080571 
L 78.157147 167.729492 
L 81.447959 169.140148 
L 84.833629 170.304895 
L 88.295809 171.217421 
L 91.815738 171.87278 
L 95.374341 172.267422 
L 98.952333 172.399207 
L 102.530325 172.267422 
L 106.088927 171.87278 
L 109.608856 171.217421 
L 113.071037 170.304895 
L 116.456706 169.140148 
L 119.747518 167.729492 
L 122.925639 166.080571 
L 125.973847 164.20232 
L 128.875623 162.104919 
L 131.615242 159.799733 
L 134.177857 157.299254 
L 136.549583 154.617032 
L 138.717566 151.767603 
L 140.670057 148.766408 
L 142.396477 145.629711 
L 143.887469 142.374509 
L 145.134953 139.018443 
L 146.13217 135.5797 
L 146.873716 132.076915 
L 147.355571 128.529069 
L 147.575125 124.955389 
L 147.589773 123.761766 
L 147.589773 123.761766 
" clip-path="url(#p636ffb8ea9)" style="fill: none; stroke-dasharray: 1.7,2.805; stroke-dashoffset: 0; stroke: #a7adb5; stroke-width: 1.7"/>
   </g>
   <g id="patch_3">
    <path d="M 21.132427 311.826537 
L 21.132427 13.5169 
" style="fill: none; stroke: #000000; stroke-width: 0.8; stroke-linejoin: miter; stroke-linecap: square"/>
   </g>
   <g id="patch_4">
    <path d="M 306.47208 311.826537 
L 306.47208 13.5169 
" style="fill: none; stroke: #000000; stroke-width: 0.8; stroke-linejoin: miter; stroke-linecap: square"/>
   </g>
   <g id="patch_5">
    <path d="M 21.132428 311.826537 
L 306.47208 311.826537 
" style="fill: none; stroke: #000000; stroke-width: 0.8; stroke-linejoin: miter; stroke-linecap: square"/>
   </g>
   <g id="patch_6">
    <path d="M 21.132428 13.5169 
L 306.47208 13.5169 
" style="fill: none; stroke: #000000; stroke-width: 0.8; stroke-linejoin: miter; stroke-linecap: square"/>
   </g>
   <g id="text_15">
    <!-- Starting circle and targets -->
    <g transform="translate(85.533191 7.5169) scale(0.12 -0.12)">
     <defs>
      <path id="DejaVuSans-53" d="M 3425 4513 
L 3425 3897 
Q 3066 4069 2747 4153 
Q 2428 4238 2131 4238 
Q 1616 4238 1336 4038 
Q 1056 3838 1056 3469 
Q 1056 3159 1242 3001 
Q 1428 2844 1947 2747 
L 2328 2669 
Q 3034 2534 3370 2195 
Q 3706 1856 3706 1288 
Q 3706 609 3251 259 
Q 2797 -91 1919 -91 
Q 1588 -91 1214 -16 
Q 841 59 441 206 
L 441 856 
Q 825 641 1194 531 
Q 1563 422 1919 422 
Q 2459 422 2753 634 
Q 3047 847 3047 1241 
Q 3047 1584 2836 1778 
Q 2625 1972 2144 2069 
L 1759 2144 
Q 1053 2284 737 2584 
Q 422 2884 422 3419 
Q 422 4038 858 4394 
Q 1294 4750 2059 4750 
Q 2388 4750 2728 4690 
Q 3069 4631 3425 4513 
z
" transform="scale(0.015625)"/>
      <path id="DejaVuSans-74" d="M 1172 4494 
L 1172 3500 
L 2356 3500 
L 2356 3053 
L 1172 3053 
L 1172 1153 
Q 1172 725 1289 603 
Q 1406 481 1766 481 
L 2356 481 
L 2356 0 
L 1766 0 
Q 1100 0 847 248 
Q 594 497 594 1153 
L 594 3053 
L 172 3053 
L 172 3500 
L 594 3500 
L 594 4494 
L 1172 4494 
z
" transform="scale(0.015625)"/>
      <path id="DejaVuSans-61" d="M 2194 1759 
Q 1497 1759 1228 1600 
Q 959 1441 959 1056 
Q 959 750 1161 570 
Q 1363 391 1709 391 
Q 2188 391 2477 730 
Q 2766 1069 2766 1631 
L 2766 1759 
L 2194 1759 
z
M 3341 1997 
L 3341 0 
L 2766 0 
L 2766 531 
Q 2569 213 2275 61 
Q 1981 -91 1556 -91 
Q 1019 -91 701 211 
Q 384 513 384 1019 
Q 384 1609 779 1909 
Q 1175 2209 1959 2209 
L 2766 2209 
L 2766 2266 
Q 2766 2663 2505 2880 
Q 2244 3097 1772 3097 
Q 1472 3097 1187 3025 
Q 903 2953 641 2809 
L 641 3341 
Q 956 3463 1253 3523 
Q 1550 3584 1831 3584 
Q 2591 3584 2966 3190 
Q 3341 2797 3341 1997 
z
" transform="scale(0.015625)"/>
      <path id="DejaVuSans-72" d="M 2631 2963 
Q 2534 3019 2420 3045 
Q 2306 3072 2169 3072 
Q 1681 3072 1420 2755 
Q 1159 2438 1159 1844 
L 1159 0 
L 581 0 
L 581 3500 
L 1159 3500 
L 1159 2956 
Q 1341 3275 1631 3429 
Q 1922 3584 2338 3584 
Q 2397 3584 2469 3576 
Q 2541 3569 2628 3553 
L 2631 2963 
z
" transform="scale(0.015625)"/>
      <path id="DejaVuSans-69" d="M 603 3500 
L 1178 3500 
L 1178 0 
L 603 0 
L 603 3500 
z
M 603 4863 
L 1178 4863 
L 1178 4134 
L 603 4134 
L 603 4863 
z
" transform="scale(0.015625)"/>
      <path id="DejaVuSans-6e" d="M 3513 2113 
L 3513 0 
L 2938 0 
L 2938 2094 
Q 2938 2591 2744 2837 
Q 2550 3084 2163 3084 
Q 1697 3084 1428 2787 
Q 1159 2491 1159 1978 
L 1159 0 
L 581 0 
L 581 3500 
L 1159 3500 
L 1159 2956 
Q 1366 3272 1645 3428 
Q 1925 3584 2291 3584 
Q 2894 3584 3203 3211 
Q 3513 2838 3513 2113 
z
" transform="scale(0.015625)"/>
      <path id="DejaVuSans-67" d="M 2906 1791 
Q 2906 2416 2648 2759 
Q 2391 3103 1925 3103 
Q 1463 3103 1205 2759 
Q 947 2416 947 1791 
Q 947 1169 1205 825 
Q 1463 481 1925 481 
Q 2391 481 2648 825 
Q 2906 1169 2906 1791 
z
M 3481 434 
Q 3481 -459 3084 -895 
Q 2688 -1331 1869 -1331 
Q 1566 -1331 1297 -1286 
Q 1028 -1241 775 -1147 
L 775 -588 
Q 1028 -725 1275 -790 
Q 1522 -856 1778 -856 
Q 2344 -856 2625 -561 
Q 2906 -266 2906 331 
L 2906 616 
Q 2728 306 2450 153 
Q 2172 0 1784 0 
Q 1141 0 747 490 
Q 353 981 353 1791 
Q 353 2603 747 3093 
Q 1141 3584 1784 3584 
Q 2172 3584 2450 3431 
Q 2728 3278 2906 2969 
L 2906 3500 
L 3481 3500 
L 3481 434 
z
" transform="scale(0.015625)"/>
      <path id="DejaVuSans-20" transform="scale(0.015625)"/>
      <path id="DejaVuSans-63" d="M 3122 3366 
L 3122 2828 
Q 2878 2963 2633 3030 
Q 2388 3097 2138 3097 
Q 1578 3097 1268 2742 
Q 959 2388 959 1747 
Q 959 1106 1268 751 
Q 1578 397 2138 397 
Q 2388 397 2633 464 
Q 2878 531 3122 666 
L 3122 134 
Q 2881 22 2623 -34 
Q 2366 -91 2075 -91 
Q 1284 -91 818 406 
Q 353 903 353 1747 
Q 353 2603 823 3093 
Q 1294 3584 2113 3584 
Q 2378 3584 2631 3529 
Q 2884 3475 3122 3366 
z
" transform="scale(0.015625)"/>
      <path id="DejaVuSans-6c" d="M 603 4863 
L 1178 4863 
L 1178 0 
L 603 0 
L 603 4863 
z
" transform="scale(0.015625)"/>
      <path id="DejaVuSans-65" d="M 3597 1894 
L 3597 1613 
L 953 1613 
Q 991 1019 1311 708 
Q 1631 397 2203 397 
Q 2534 397 2845 478 
Q 3156 559 3463 722 
L 3463 178 
Q 3153 47 2828 -22 
Q 2503 -91 2169 -91 
Q 1331 -91 842 396 
Q 353 884 353 1716 
Q 353 2575 817 3079 
Q 1281 3584 2069 3584 
Q 2775 3584 3186 3129 
Q 3597 2675 3597 1894 
z
M 3022 2063 
Q 3016 2534 2758 2815 
Q 2500 3097 2075 3097 
Q 1594 3097 1305 2825 
Q 1016 2553 972 2059 
L 3022 2063 
z
" transform="scale(0.015625)"/>
      <path id="DejaVuSans-64" d="M 2906 2969 
L 2906 4863 
L 3481 4863 
L 3481 0 
L 2906 0 
L 2906 525 
Q 2725 213 2448 61 
Q 2172 -91 1784 -91 
Q 1150 -91 751 415 
Q 353 922 353 1747 
Q 353 2572 751 3078 
Q 1150 3584 1784 3584 
Q 2172 3584 2448 3432 
Q 2725 3281 2906 2969 
z
M 947 1747 
Q 947 1113 1208 752 
Q 1469 391 1925 391 
Q 2381 391 2643 752 
Q 2906 1113 2906 1747 
Q 2906 2381 2643 2742 
Q 2381 3103 1925 3103 
Q 1469 3103 1208 2742 
Q 947 2381 947 1747 
z
" transform="scale(0.015625)"/>
      <path id="DejaVuSans-73" d="M 2834 3397 
L 2834 2853 
Q 2591 2978 2328 3040 
Q 2066 3103 1784 3103 
Q 1356 3103 1142 2972 
Q 928 2841 928 2578 
Q 928 2378 1081 2264 
Q 1234 2150 1697 2047 
L 1894 2003 
Q 2506 1872 2764 1633 
Q 3022 1394 3022 966 
Q 3022 478 2636 193 
Q 2250 -91 1575 -91 
Q 1294 -91 989 -36 
Q 684 19 347 128 
L 347 722 
Q 666 556 975 473 
Q 1284 391 1588 391 
Q 1994 391 2212 530 
Q 2431 669 2431 922 
Q 2431 1156 2273 1281 
Q 2116 1406 1581 1522 
L 1381 1569 
Q 847 1681 609 1914 
Q 372 2147 372 2553 
Q 372 3047 722 3315 
Q 1072 3584 1716 3584 
Q 2034 3584 2315 3537 
Q 2597 3491 2834 3397 
z
" transform="scale(0.015625)"/>
     </defs>
     <use xlink:href="#DejaVuSans-53"/>
     <use xlink:href="#DejaVuSans-74" x="63.476562"/>
     <use xlink:href="#DejaVuSans-61" x="102.685547"/>
     <use xlink:href="#DejaVuSans-72" x="163.964844"/>
     <use xlink:href="#DejaVuSans-74" x="205.078125"/>
     <use xlink:href="#DejaVuSans-69" x="244.287109"/>
     <use xlink:href="#DejaVuSans-6e" x="272.070312"/>
     <use xlink:href="#DejaVuSans-67" x="335.449219"/>
     <use xlink:href="#DejaVuSans-20" x="398.925781"/>
     <use xlink:href="#DejaVuSans-63" x="430.712891"/>
     <use xlink:href="#DejaVuSans-69" x="485.693359"/>
     <use xlink:href="#DejaVuSans-72" x="513.476562"/>
     <use xlink:href="#DejaVuSans-63" x="552.339844"/>
     <use xlink:href="#DejaVuSans-6c" x="607.320312"/>
     <use xlink:href="#DejaVuSans-65" x="635.103516"/>
     <use xlink:href="#DejaVuSans-20" x="696.626953"/>
     <use xlink:href="#DejaVuSans-61" x="728.414062"/>
     <use xlink:href="#DejaVuSans-6e" x="789.693359"/>
     <use xlink:href="#DejaVuSans-64" x="853.072266"/>
     <use xlink:href="#DejaVuSans-20" x="916.548828"/>
     <use xlink:href="#DejaVuSans-74" x="948.335938"/>
     <use xlink:href="#DejaVuSans-61" x="987.544922"/>
     <use xlink:href="#DejaVuSans-72" x="1048.824219"/>
     <use xlink:href="#DejaVuSans-67" x="1088.1875"/>
     <use xlink:href="#DejaVuSans-65" x="1151.664062"/>
     <use xlink:href="#DejaVuSans-74" x="1213.1875"/>
     <use xlink:href="#DejaVuSans-73" x="1252.396484"/>
    </g>
   </g>
   <g id="legend_1">
    <g id="patch_7">
     <path d="M 250.51708 43.4019 
L 300.87208 43.4019 
Q 302.47208 43.4019 302.47208 41.8019 
L 302.47208 19.1169 
Q 302.47208 17.5169 300.87208 17.5169 
L 250.51708 17.5169 
Q 248.91708 17.5169 248.91708 19.1169 
L 248.91708 41.8019 
Q 248.91708 43.4019 250.51708 43.4019 
z
" style="fill: #ffffff; opacity: 0.8; stroke: #cccccc; stroke-linejoin: miter"/>
    </g>
    <g id="line2d_32">
     <path d="M 252.11708 23.99565 
L 260.11708 23.99565 
L 268.11708 23.99565 
" style="fill: none; stroke-dasharray: 6.29,2.72; stroke-dashoffset: 0; stroke: #263747; stroke-width: 1.7"/>
    </g>
    <g id="text_16">
     <!-- Target -->
     <g transform="translate(274.51708 26.79565) scale(0.08 -0.08)">
      <defs>
       <path id="DejaVuSans-54" d="M -19 4666 
L 3928 4666 
L 3928 4134 
L 2272 4134 
L 2272 0 
L 1638 0 
L 1638 4134 
L -19 4134 
L -19 4666 
z
" transform="scale(0.015625)"/>
      </defs>
      <use xlink:href="#DejaVuSans-54"/>
      <use xlink:href="#DejaVuSans-61" x="44.583984"/>
      <use xlink:href="#DejaVuSans-72" x="105.863281"/>
      <use xlink:href="#DejaVuSans-67" x="145.226562"/>
      <use xlink:href="#DejaVuSans-65" x="208.703125"/>
      <use xlink:href="#DejaVuSans-74" x="270.226562"/>
     </g>
    </g>
    <g id="line2d_33">
     <path d="M 252.11708 35.73815 
L 260.11708 35.73815 
L 268.11708 35.73815 
" style="fill: none; stroke-dasharray: 1.7,2.805; stroke-dashoffset: 0; stroke: #a7adb5; stroke-width: 1.7"/>
    </g>
    <g id="text_17">
     <!-- Initial -->
     <g transform="translate(274.51708 38.53815) scale(0.08 -0.08)">
      <defs>
       <path id="DejaVuSans-49" d="M 628 4666 
L 1259 4666 
L 1259 0 
L 628 0 
L 628 4666 
z
" transform="scale(0.015625)"/>
      </defs>
      <use xlink:href="#DejaVuSans-49"/>
      <use xlink:href="#DejaVuSans-6e" x="29.492188"/>
      <use xlink:href="#DejaVuSans-69" x="92.871094"/>
      <use xlink:href="#DejaVuSans-74" x="120.654297"/>
      <use xlink:href="#DejaVuSans-69" x="159.863281"/>
      <use xlink:href="#DejaVuSans-61" x="187.646484"/>
      <use xlink:href="#DejaVuSans-6c" x="248.925781"/>
     </g>
    </g>
   </g>
  </g>
  <g id="axes_2">
   <g id="patch_8">
    <path d="M 330.796267 311.826537 
L 616.13592 311.826537 
L 616.13592 13.5169 
L 330.796267 13.5169 
z
" style="fill: #ffffff"/>
   </g>
   <g id="matplotlib.axis_3">
    <g id="xtick_10">
     <g id="line2d_34">
      <path d="M 343.766252 311.826537 
L 343.766252 13.5169 
" clip-path="url(#p9482fd21cc)" style="fill: none; stroke: #b0b0b0; stroke-opacity: 0.12; stroke-width: 0.8; stroke-linecap: square"/>
     </g>
     <g id="line2d_35">
      <g>
       <use xlink:href="#m376874ac4f" x="343.766252" y="311.826537" style="stroke: #000000; stroke-width: 0.8"/>
      </g>
     </g>
     <g id="text_18">
      <!-- 0.30 -->
      <g transform="translate(335.973283 324.145443) scale(0.07 -0.07)">
       <use xlink:href="#DejaVuSans-30"/>
       <use xlink:href="#DejaVuSans-2e" x="63.623047"/>
       <use xlink:href="#DejaVuSans-33" x="95.410156"/>
       <use xlink:href="#DejaVuSans-30" x="159.033203"/>
      </g>
     </g>
    </g>
    <g id="xtick_11">
     <g id="line2d_36">
      <path d="M 376.191212 311.826537 
L 376.191212 13.5169 
" clip-path="url(#p9482fd21cc)" style="fill: none; stroke: #b0b0b0; stroke-opacity: 0.12; stroke-width: 0.8; stroke-linecap: square"/>
     </g>
     <g id="line2d_37">
      <g>
       <use xlink:href="#m376874ac4f" x="376.191212" y="311.826537" style="stroke: #000000; stroke-width: 0.8"/>
      </g>
     </g>
     <g id="text_19">
      <!-- 0.35 -->
      <g transform="translate(368.398243 324.145443) scale(0.07 -0.07)">
       <use xlink:href="#DejaVuSans-30"/>
       <use xlink:href="#DejaVuSans-2e" x="63.623047"/>
       <use xlink:href="#DejaVuSans-33" x="95.410156"/>
       <use xlink:href="#DejaVuSans-35" x="159.033203"/>
      </g>
     </g>
    </g>
    <g id="xtick_12">
     <g id="line2d_38">
      <path d="M 408.616173 311.826537 
L 408.616173 13.5169 
" clip-path="url(#p9482fd21cc)" style="fill: none; stroke: #b0b0b0; stroke-opacity: 0.12; stroke-width: 0.8; stroke-linecap: square"/>
     </g>
     <g id="line2d_39">
      <g>
       <use xlink:href="#m376874ac4f" x="408.616173" y="311.826537" style="stroke: #000000; stroke-width: 0.8"/>
      </g>
     </g>
     <g id="text_20">
      <!-- 0.40 -->
      <g transform="translate(400.823204 324.145443) scale(0.07 -0.07)">
       <use xlink:href="#DejaVuSans-30"/>
       <use xlink:href="#DejaVuSans-2e" x="63.623047"/>
       <use xlink:href="#DejaVuSans-34" x="95.410156"/>
       <use xlink:href="#DejaVuSans-30" x="159.033203"/>
      </g>
     </g>
    </g>
    <g id="xtick_13">
     <g id="line2d_40">
      <path d="M 441.041133 311.826537 
L 441.041133 13.5169 
" clip-path="url(#p9482fd21cc)" style="fill: none; stroke: #b0b0b0; stroke-opacity: 0.12; stroke-width: 0.8; stroke-linecap: square"/>
     </g>
     <g id="line2d_41">
      <g>
       <use xlink:href="#m376874ac4f" x="441.041133" y="311.826537" style="stroke: #000000; stroke-width: 0.8"/>
      </g>
     </g>
     <g id="text_21">
      <!-- 0.45 -->
      <g transform="translate(433.248164 324.145443) scale(0.07 -0.07)">
       <use xlink:href="#DejaVuSans-30"/>
       <use xlink:href="#DejaVuSans-2e" x="63.623047"/>
       <use xlink:href="#DejaVuSans-34" x="95.410156"/>
       <use xlink:href="#DejaVuSans-35" x="159.033203"/>
      </g>
     </g>
    </g>
    <g id="xtick_14">
     <g id="line2d_42">
      <path d="M 473.466094 311.826537 
L 473.466094 13.5169 
" clip-path="url(#p9482fd21cc)" style="fill: none; stroke: #b0b0b0; stroke-opacity: 0.12; stroke-width: 0.8; stroke-linecap: square"/>
     </g>
     <g id="line2d_43">
      <g>
       <use xlink:href="#m376874ac4f" x="473.466094" y="311.826537" style="stroke: #000000; stroke-width: 0.8"/>
      </g>
     </g>
     <g id="text_22">
      <!-- 0.50 -->
      <g transform="translate(465.673125 324.145443) scale(0.07 -0.07)">
       <use xlink:href="#DejaVuSans-30"/>
       <use xlink:href="#DejaVuSans-2e" x="63.623047"/>
       <use xlink:href="#DejaVuSans-35" x="95.410156"/>
       <use xlink:href="#DejaVuSans-30" x="159.033203"/>
      </g>
     </g>
    </g>
    <g id="xtick_15">
     <g id="line2d_44">
      <path d="M 505.891054 311.826537 
L 505.891054 13.5169 
" clip-path="url(#p9482fd21cc)" style="fill: none; stroke: #b0b0b0; stroke-opacity: 0.12; stroke-width: 0.8; stroke-linecap: square"/>
     </g>
     <g id="line2d_45">
      <g>
       <use xlink:href="#m376874ac4f" x="505.891054" y="311.826537" style="stroke: #000000; stroke-width: 0.8"/>
      </g>
     </g>
     <g id="text_23">
      <!-- 0.55 -->
      <g transform="translate(498.098086 324.145443) scale(0.07 -0.07)">
       <use xlink:href="#DejaVuSans-30"/>
       <use xlink:href="#DejaVuSans-2e" x="63.623047"/>
       <use xlink:href="#DejaVuSans-35" x="95.410156"/>
       <use xlink:href="#DejaVuSans-35" x="159.033203"/>
      </g>
     </g>
    </g>
    <g id="xtick_16">
     <g id="line2d_46">
      <path d="M 538.316015 311.826537 
L 538.316015 13.5169 
" clip-path="url(#p9482fd21cc)" style="fill: none; stroke: #b0b0b0; stroke-opacity: 0.12; stroke-width: 0.8; stroke-linecap: square"/>
     </g>
     <g id="line2d_47">
      <g>
       <use xlink:href="#m376874ac4f" x="538.316015" y="311.826537" style="stroke: #000000; stroke-width: 0.8"/>
      </g>
     </g>
     <g id="text_24">
      <!-- 0.60 -->
      <g transform="translate(530.523046 324.145443) scale(0.07 -0.07)">
       <use xlink:href="#DejaVuSans-30"/>
       <use xlink:href="#DejaVuSans-2e" x="63.623047"/>
       <use xlink:href="#DejaVuSans-36" x="95.410156"/>
       <use xlink:href="#DejaVuSans-30" x="159.033203"/>
      </g>
     </g>
    </g>
    <g id="xtick_17">
     <g id="line2d_48">
      <path d="M 570.740975 311.826537 
L 570.740975 13.5169 
" clip-path="url(#p9482fd21cc)" style="fill: none; stroke: #b0b0b0; stroke-opacity: 0.12; stroke-width: 0.8; stroke-linecap: square"/>
     </g>
     <g id="line2d_49">
      <g>
       <use xlink:href="#m376874ac4f" x="570.740975" y="311.826537" style="stroke: #000000; stroke-width: 0.8"/>
      </g>
     </g>
     <g id="text_25">
      <!-- 0.65 -->
      <g transform="translate(562.948007 324.145443) scale(0.07 -0.07)">
       <use xlink:href="#DejaVuSans-30"/>
       <use xlink:href="#DejaVuSans-2e" x="63.623047"/>
       <use xlink:href="#DejaVuSans-36" x="95.410156"/>
       <use xlink:href="#DejaVuSans-35" x="159.033203"/>
      </g>
     </g>
    </g>
    <g id="xtick_18">
     <g id="line2d_50">
      <path d="M 603.165936 311.826537 
L 603.165936 13.5169 
" clip-path="url(#p9482fd21cc)" style="fill: none; stroke: #b0b0b0; stroke-opacity: 0.12; stroke-width: 0.8; stroke-linecap: square"/>
     </g>
     <g id="line2d_51">
      <g>
       <use xlink:href="#m376874ac4f" x="603.165936" y="311.826537" style="stroke: #000000; stroke-width: 0.8"/>
      </g>
     </g>
     <g id="text_26">
      <!-- 0.70 -->
      <g transform="translate(595.372967 324.145443) scale(0.07 -0.07)">
       <use xlink:href="#DejaVuSans-30"/>
       <use xlink:href="#DejaVuSans-2e" x="63.623047"/>
       <use xlink:href="#DejaVuSans-37" x="95.410156"/>
       <use xlink:href="#DejaVuSans-30" x="159.033203"/>
      </g>
     </g>
    </g>
   </g>
   <g id="matplotlib.axis_4">
    <g id="ytick_6">
     <g id="line2d_52">
      <path d="M 330.796267 298.856553 
L 616.13592 298.856553 
" clip-path="url(#p9482fd21cc)" style="fill: none; stroke: #b0b0b0; stroke-opacity: 0.12; stroke-width: 0.8; stroke-linecap: square"/>
     </g>
     <g id="line2d_53">
      <g>
       <use xlink:href="#mcf68c06ed4" x="330.796267" y="298.856553" style="stroke: #000000; stroke-width: 0.8"/>
      </g>
     </g>
     <g id="text_27">
      <!-- 0.3 -->
      <g transform="translate(312.66408 301.516006) scale(0.07 -0.07)">
       <use xlink:href="#DejaVuSans-30"/>
       <use xlink:href="#DejaVuSans-2e" x="63.623047"/>
       <use xlink:href="#DejaVuSans-33" x="95.410156"/>
      </g>
     </g>
    </g>
    <g id="ytick_7">
     <g id="line2d_54">
      <path d="M 330.796267 234.006632 
L 616.13592 234.006632 
" clip-path="url(#p9482fd21cc)" style="fill: none; stroke: #b0b0b0; stroke-opacity: 0.12; stroke-width: 0.8; stroke-linecap: square"/>
     </g>
     <g id="line2d_55">
      <g>
       <use xlink:href="#mcf68c06ed4" x="330.796267" y="234.006632" style="stroke: #000000; stroke-width: 0.8"/>
      </g>
     </g>
     <g id="text_28">
      <!-- 0.4 -->
      <g transform="translate(312.66408 236.666085) scale(0.07 -0.07)">
       <use xlink:href="#DejaVuSans-30"/>
       <use xlink:href="#DejaVuSans-2e" x="63.623047"/>
       <use xlink:href="#DejaVuSans-34" x="95.410156"/>
      </g>
     </g>
    </g>
    <g id="ytick_8">
     <g id="line2d_56">
      <path d="M 330.796267 169.156711 
L 616.13592 169.156711 
" clip-path="url(#p9482fd21cc)" style="fill: none; stroke: #b0b0b0; stroke-opacity: 0.12; stroke-width: 0.8; stroke-linecap: square"/>
     </g>
     <g id="line2d_57">
      <g>
       <use xlink:href="#mcf68c06ed4" x="330.796267" y="169.156711" style="stroke: #000000; stroke-width: 0.8"/>
      </g>
     </g>
     <g id="text_29">
      <!-- 0.5 -->
      <g transform="translate(312.66408 171.816164) scale(0.07 -0.07)">
       <use xlink:href="#DejaVuSans-30"/>
       <use xlink:href="#DejaVuSans-2e" x="63.623047"/>
       <use xlink:href="#DejaVuSans-35" x="95.410156"/>
      </g>
     </g>
    </g>
    <g id="ytick_9">
     <g id="line2d_58">
      <path d="M 330.796267 104.30679 
L 616.13592 104.30679 
" clip-path="url(#p9482fd21cc)" style="fill: none; stroke: #b0b0b0; stroke-opacity: 0.12; stroke-width: 0.8; stroke-linecap: square"/>
     </g>
     <g id="line2d_59">
      <g>
       <use xlink:href="#mcf68c06ed4" x="330.796267" y="104.30679" style="stroke: #000000; stroke-width: 0.8"/>
      </g>
     </g>
     <g id="text_30">
      <!-- 0.6 -->
      <g transform="translate(312.66408 106.966243) scale(0.07 -0.07)">
       <use xlink:href="#DejaVuSans-30"/>
       <use xlink:href="#DejaVuSans-2e" x="63.623047"/>
       <use xlink:href="#DejaVuSans-36" x="95.410156"/>
      </g>
     </g>
    </g>
    <g id="ytick_10">
     <g id="line2d_60">
      <path d="M 330.796267 39.456869 
L 616.13592 39.456869 
" clip-path="url(#p9482fd21cc)" style="fill: none; stroke: #b0b0b0; stroke-opacity: 0.12; stroke-width: 0.8; stroke-linecap: square"/>
     </g>
     <g id="line2d_61">
      <g>
       <use xlink:href="#mcf68c06ed4" x="330.796267" y="39.456869" style="stroke: #000000; stroke-width: 0.8"/>
      </g>
     </g>
     <g id="text_31">
      <!-- 0.7 -->
      <g transform="translate(312.66408 42.116322) scale(0.07 -0.07)">
       <use xlink:href="#DejaVuSans-30"/>
       <use xlink:href="#DejaVuSans-2e" x="63.623047"/>
       <use xlink:href="#DejaVuSans-37" x="95.410156"/>
      </g>
     </g>
    </g>
   </g>
   <g id="line2d_62">
    <path d="M 530.769821 199.298354 
L 529.92195 198.121314 
L 528.896856 197.065444 
L 527.7021 196.138531 
L 526.346493 195.347411 
L 524.613142 194.616987 
L 522.699487 194.078545 
L 520.623958 193.73727 
L 518.406543 193.596449 
L 516.068597 193.657438 
L 513.322408 193.96647 
L 510.48566 194.526354 
L 507.592923 195.330267 
L 504.679446 196.368414 
L 501.780734 197.628143 
L 498.93211 199.094103 
L 496.168289 200.748429 
L 493.52295 202.570962 
L 491.028329 204.539493 
L 488.714827 206.630033 
L 486.610635 208.817106 
L 484.741395 211.07406 
L 483.129886 213.373393 
L 481.795746 215.687084 
L 480.85592 217.732957 
L 480.157196 219.748193 
L 479.706302 221.713383 
L 479.507583 223.609601 
L 479.56295 225.418587 
L 479.819468 226.916172 
L 480.268259 228.322571 
L 480.906012 229.627413 
L 481.728024 230.821074 
L 482.728233 231.894752 
L 483.899262 232.840529 
L 485.232476 233.651429 
L 486.718042 234.321473 
L 488.588284 234.90847 
L 490.625161 235.29942 
L 492.809057 235.490557 
L 495.118939 235.480042 
L 497.840412 235.227375 
L 500.65999 234.722753 
L 503.543315 233.972324 
L 506.455249 232.985234 
L 509.360308 231.773512 
L 512.22309 230.351922 
L 515.00871 228.73779 
L 517.683222 226.950785 
L 520.214033 225.012683 
L 522.570304 222.947103 
L 524.72332 220.779215 
L 526.646845 218.535437 
L 528.317439 216.243113 
L 529.714744 213.930177 
L 530.713521 211.879716 
L 531.473243 209.854987 
L 531.986596 207.875489 
L 532.248634 205.960287 
L 532.256834 204.127824 
L 532.05566 202.606187 
L 531.661528 201.172646 
L 531.077345 199.837772 
L 530.769821 199.298354 
L 530.769821 199.298354 
" clip-path="url(#p9482fd21cc)" style="fill: none; stroke-dasharray: 6.29,2.72; stroke-dashoffset: 0; stroke: #263747; stroke-width: 1.7"/>
   </g>
   <g id="line2d_63">
    <path d="M 573.172959 143.950455 
L 572.850026 142.932268 
L 572.311518 141.980324 
L 571.57312 141.112705 
L 570.657168 140.343642 
L 569.208672 139.487204 
L 567.572354 138.829792 
L 565.833401 138.360779 
L 563.646153 137.994569 
L 557.810632 137.224686 
L 556.99892 136.795854 
L 556.394743 136.16175 
L 555.960237 135.294373 
L 555.576231 133.872617 
L 554.215304 127.516547 
L 553.573004 125.836328 
L 552.750167 124.287708 
L 551.746179 122.955521 
L 550.883727 122.143961 
L 549.941213 121.522472 
L 548.935467 121.110764 
L 547.886371 120.921436 
L 546.815703 120.959395 
L 545.745899 121.221608 
L 544.698777 121.697198 
L 543.694312 122.367894 
L 542.450218 123.521801 
L 541.340812 124.903861 
L 540.379886 126.428388 
L 539.381385 128.39568 
L 537.015305 133.394537 
L 536.367172 134.060749 
L 535.592452 134.464606 
L 534.651523 134.631344 
L 533.205453 134.576335 
L 526.340069 133.894388 
L 524.548893 134.015447 
L 522.839175 134.354097 
L 521.291186 134.934264 
L 520.281882 135.531218 
L 519.433809 136.261512 
L 518.769832 137.114147 
L 518.306798 138.073192 
L 518.054672 139.118743 
L 518.015986 140.228053 
L 518.185604 141.3768 
L 518.550835 142.540394 
L 519.30696 144.074533 
L 520.311004 145.544349 
L 521.793101 147.235194 
L 523.67421 149.000806 
L 526.4918 151.572544 
L 527.093722 152.39446 
L 527.411746 153.226712 
L 527.442921 154.117111 
L 527.208583 155.108546 
L 526.610586 156.538985 
L 524.410729 161.351209 
L 523.754228 163.503776 
L 523.460365 165.245651 
L 523.431703 166.932911 
L 523.605893 168.120136 
L 523.955952 169.208043 
L 524.48168 170.169956 
L 525.176127 170.982819 
L 526.0261 171.628398 
L 527.012954 172.094274 
L 528.113622 172.374583 
L 529.301838 172.470465 
L 530.549472 172.390186 
L 532.256102 172.036307 
L 533.953028 171.450293 
L 535.975833 170.498628 
L 538.811504 168.850598 
L 540.819837 167.738431 
L 541.797508 167.394513 
L 542.693178 167.320725 
L 543.550839 167.537053 
L 544.417828 168.038938 
L 545.583232 169.021614 
L 549.791953 172.859572 
L 551.270704 173.889552 
L 552.830733 174.730491 
L 554.425972 175.308836 
L 555.612327 175.535431 
L 556.761994 175.56571 
L 557.849459 175.390622 
L 558.850392 175.008648 
L 559.742946 174.425728 
L 560.508972 173.654863 
L 561.135065 172.715402 
L 561.6134 171.632051 
L 561.942297 170.433666 
L 562.157504 168.711753 
L 562.145007 166.919567 
L 561.88252 164.695125 
L 561.283394 161.832894 
L 560.738061 159.175131 
L 560.6925 158.121474 
L 560.874131 157.23208 
L 561.317637 156.472615 
L 562.035637 155.797507 
L 563.29998 154.993206 
L 568.589501 151.957047 
L 570.00854 150.847876 
L 571.259681 149.605148 
L 572.260322 148.252245 
L 572.804482 147.187203 
L 573.146724 146.100527 
L 573.272019 145.014024 
L 573.172959 143.950455 
L 573.172959 143.950455 
" clip-path="url(#p9482fd21cc)" style="fill: none; stroke-dasharray: 6.29,2.72; stroke-dashoffset: 0; stroke: #263747; stroke-width: 1.7"/>
   </g>
   <g id="line2d_64">
    <path d="M 567.735435 149.767036 
L 567.623344 147.48536 
L 567.288149 145.225657 
L 566.733078 143.00969 
L 565.963477 140.858801 
L 564.986758 138.793702 
L 563.812327 136.834283 
L 562.451495 134.999413 
L 560.917367 133.306763 
L 559.224717 131.772635 
L 557.389848 130.411803 
L 555.430428 129.237372 
L 553.36533 128.260653 
L 551.21444 127.491052 
L 548.998473 126.935981 
L 546.73877 126.600786 
L 544.457094 126.488695 
L 542.175417 126.600786 
L 539.915715 126.935981 
L 537.699748 127.491052 
L 535.548858 128.260653 
L 533.48376 129.237372 
L 531.52434 130.411803 
L 529.68947 131.772635 
L 527.996821 133.306763 
L 526.462693 134.999413 
L 525.10186 136.834283 
L 523.92743 138.793702 
L 522.950711 140.858801 
L 522.18111 143.00969 
L 521.626039 145.225657 
L 521.290844 147.48536 
L 521.178753 149.767036 
L 521.290844 152.048713 
L 521.626039 154.308415 
L 522.18111 156.524382 
L 522.950711 158.675272 
L 523.92743 160.74037 
L 525.10186 162.69979 
L 526.462693 164.53466 
L 527.996821 166.227309 
L 529.68947 167.761437 
L 531.52434 169.12227 
L 533.48376 170.2967 
L 535.548858 171.273419 
L 537.699748 172.04302 
L 539.915715 172.598091 
L 542.175417 172.933286 
L 544.457094 173.045378 
L 546.73877 172.933286 
L 548.998473 172.598091 
L 551.21444 172.04302 
L 553.36533 171.273419 
L 555.430428 170.2967 
L 557.389848 169.12227 
L 559.224717 167.761437 
L 560.917367 166.227309 
L 562.451495 164.53466 
L 563.812327 162.69979 
L 564.986758 160.74037 
L 565.963477 158.675272 
L 566.733078 156.524382 
L 567.288149 154.308415 
L 567.623344 152.048713 
L 567.735435 149.767036 
L 567.735435 149.767036 
" clip-path="url(#p9482fd21cc)" style="fill: none; stroke: #087f8c; stroke-width: 1.7; stroke-linecap: square"/>
   </g>
   <g id="line2d_65">
    <path d="M 523.885544 215.825051 
L 523.784066 213.759403 
L 523.480606 211.713647 
L 522.97809 209.707487 
L 522.281354 207.760243 
L 521.397111 205.890667 
L 520.333875 204.116765 
L 519.101885 202.455619 
L 517.713008 200.923229 
L 516.180617 199.534351 
L 514.519472 198.302362 
L 512.74557 197.239126 
L 510.875994 196.354882 
L 508.928749 195.658147 
L 506.922589 195.15563 
L 504.876834 194.852171 
L 502.811186 194.750692 
L 500.745537 194.852171 
L 498.699782 195.15563 
L 496.693622 195.658147 
L 494.746378 196.354882 
L 492.876802 197.239126 
L 491.1029 198.302362 
L 489.441754 199.534351 
L 487.909364 200.923229 
L 486.520486 202.455619 
L 485.288497 204.116765 
L 484.225261 205.890667 
L 483.341017 207.760243 
L 482.644282 209.707487 
L 482.141765 211.713647 
L 481.838306 213.759403 
L 481.736827 215.825051 
L 481.838306 217.890699 
L 482.141765 219.936454 
L 482.644282 221.942614 
L 483.341017 223.889859 
L 484.225261 225.759435 
L 485.288497 227.533337 
L 486.520486 229.194482 
L 487.909364 230.726873 
L 489.441754 232.11575 
L 491.1029 233.34774 
L 492.876802 234.410976 
L 494.746378 235.295219 
L 496.693622 235.991955 
L 498.699782 236.494472 
L 500.745537 236.797931 
L 502.811186 236.899409 
L 504.876834 236.797931 
L 506.922589 236.494472 
L 508.928749 235.991955 
L 510.875994 235.295219 
L 512.74557 234.410976 
L 514.519472 233.34774 
L 516.180617 232.11575 
L 517.713008 230.726873 
L 519.101885 229.194482 
L 520.333875 227.533337 
L 521.397111 225.759435 
L 522.281354 223.889859 
L 522.97809 221.942614 
L 523.480606 219.936454 
L 523.784066 217.890699 
L 523.885544 215.825051 
L 523.885544 215.825051 
" clip-path="url(#p9482fd21cc)" style="fill: none; stroke: #087f8c; stroke-width: 1.7; stroke-linecap: square"/>
   </g>
   <g id="line2d_66">
    <path d="M 542.924773 201.283543 
L 542.809153 199.940918 
L 542.465698 198.637826 
L 541.904519 197.412636 
L 541.142143 196.301425 
L 540.201015 195.33691 
L 539.108847 194.547492 
L 537.897798 193.956415 
L 536.603528 193.581084 
L 535.264144 193.432549 
L 533.919086 193.515184 
L 532.607958 193.826557 
L 531.369365 194.357498 
L 530.239778 195.092375 
L 529.252457 196.009549 
L 528.436474 197.082015 
L 527.815855 198.278193 
L 527.408873 199.562862 
L 527.227513 200.898197 
L 527.277114 202.244878 
L 527.556216 203.563253 
L 528.056601 204.814503 
L 528.763535 205.961784 
L 529.656203 206.971316 
L 530.70832 207.813373 
L 531.888907 208.463162 
L 533.163202 208.901548 
L 534.493684 209.115624 
L 535.841177 209.099087 
L 537.166005 208.852424 
L 538.429157 208.382897 
L 539.593442 207.704331 
L 540.624577 206.836707 
L 541.492201 205.805572 
L 542.170766 204.641287 
L 542.640294 203.378135 
L 542.886957 202.053307 
L 542.924773 201.283543 
L 542.924773 201.283543 
" clip-path="url(#p9482fd21cc)" style="fill: none; stroke: #087f8c; stroke-width: 1.7; stroke-linecap: square"/>
   </g>
   <g id="patch_9">
    <path d="M 330.796267 311.826537 
L 330.796267 13.5169 
" style="fill: none; stroke: #000000; stroke-width: 0.8; stroke-linejoin: miter; stroke-linecap: square"/>
   </g>
   <g id="patch_10">
    <path d="M 616.13592 311.826537 
L 616.13592 13.5169 
" style="fill: none; stroke: #000000; stroke-width: 0.8; stroke-linejoin: miter; stroke-linecap: square"/>
   </g>
   <g id="patch_11">
    <path d="M 330.796267 311.826537 
L 616.13592 311.826537 
" style="fill: none; stroke: #000000; stroke-width: 0.8; stroke-linejoin: miter; stroke-linecap: square"/>
   </g>
   <g id="patch_12">
    <path d="M 330.796267 13.5169 
L 616.13592 13.5169 
" style="fill: none; stroke: #000000; stroke-width: 0.8; stroke-linejoin: miter; stroke-linecap: square"/>
   </g>
   <g id="text_32">
    <!-- Default a — FAILED: last saved state -->
    <g transform="translate(363.997031 7.5169) scale(0.12 -0.12)">
     <defs>
      <path id="DejaVuSans-44" d="M 1259 4147 
L 1259 519 
L 2022 519 
Q 2988 519 3436 956 
Q 3884 1394 3884 2338 
Q 3884 3275 3436 3711 
Q 2988 4147 2022 4147 
L 1259 4147 
z
M 628 4666 
L 1925 4666 
Q 3281 4666 3915 4102 
Q 4550 3538 4550 2338 
Q 4550 1131 3912 565 
Q 3275 0 1925 0 
L 628 0 
L 628 4666 
z
" transform="scale(0.015625)"/>
      <path id="DejaVuSans-66" d="M 2375 4863 
L 2375 4384 
L 1825 4384 
Q 1516 4384 1395 4259 
Q 1275 4134 1275 3809 
L 1275 3500 
L 2222 3500 
L 2222 3053 
L 1275 3053 
L 1275 0 
L 697 0 
L 697 3053 
L 147 3053 
L 147 3500 
L 697 3500 
L 697 3744 
Q 697 4328 969 4595 
Q 1241 4863 1831 4863 
L 2375 4863 
z
" transform="scale(0.015625)"/>
      <path id="DejaVuSans-75" d="M 544 1381 
L 544 3500 
L 1119 3500 
L 1119 1403 
Q 1119 906 1312 657 
Q 1506 409 1894 409 
Q 2359 409 2629 706 
Q 2900 1003 2900 1516 
L 2900 3500 
L 3475 3500 
L 3475 0 
L 2900 0 
L 2900 538 
Q 2691 219 2414 64 
Q 2138 -91 1772 -91 
Q 1169 -91 856 284 
Q 544 659 544 1381 
z
M 1991 3584 
L 1991 3584 
z
" transform="scale(0.015625)"/>
      <path id="DejaVuSans-2014" d="M 313 1978 
L 6088 1978 
L 6088 1528 
L 313 1528 
L 313 1978 
z
" transform="scale(0.015625)"/>
      <path id="DejaVuSans-46" d="M 628 4666 
L 3309 4666 
L 3309 4134 
L 1259 4134 
L 1259 2759 
L 3109 2759 
L 3109 2228 
L 1259 2228 
L 1259 0 
L 628 0 
L 628 4666 
z
" transform="scale(0.015625)"/>
      <path id="DejaVuSans-41" d="M 2188 4044 
L 1331 1722 
L 3047 1722 
L 2188 4044 
z
M 1831 4666 
L 2547 4666 
L 4325 0 
L 3669 0 
L 3244 1197 
L 1141 1197 
L 716 0 
L 50 0 
L 1831 4666 
z
" transform="scale(0.015625)"/>
      <path id="DejaVuSans-4c" d="M 628 4666 
L 1259 4666 
L 1259 531 
L 3531 531 
L 3531 0 
L 628 0 
L 628 4666 
z
" transform="scale(0.015625)"/>
      <path id="DejaVuSans-45" d="M 628 4666 
L 3578 4666 
L 3578 4134 
L 1259 4134 
L 1259 2753 
L 3481 2753 
L 3481 2222 
L 1259 2222 
L 1259 531 
L 3634 531 
L 3634 0 
L 628 0 
L 628 4666 
z
" transform="scale(0.015625)"/>
      <path id="DejaVuSans-3a" d="M 750 794 
L 1409 794 
L 1409 0 
L 750 0 
L 750 794 
z
M 750 3309 
L 1409 3309 
L 1409 2516 
L 750 2516 
L 750 3309 
z
" transform="scale(0.015625)"/>
      <path id="DejaVuSans-76" d="M 191 3500 
L 800 3500 
L 1894 563 
L 2988 3500 
L 3597 3500 
L 2284 0 
L 1503 0 
L 191 3500 
z
" transform="scale(0.015625)"/>
     </defs>
     <use xlink:href="#DejaVuSans-44"/>
     <use xlink:href="#DejaVuSans-65" x="77.001953"/>
     <use xlink:href="#DejaVuSans-66" x="138.525391"/>
     <use xlink:href="#DejaVuSans-61" x="173.730469"/>
     <use xlink:href="#DejaVuSans-75" x="235.009766"/>
     <use xlink:href="#DejaVuSans-6c" x="298.388672"/>
     <use xlink:href="#DejaVuSans-74" x="326.171875"/>
     <use xlink:href="#DejaVuSans-20" x="365.380859"/>
     <use xlink:href="#DejaVuSans-61" x="397.167969"/>
     <use xlink:href="#DejaVuSans-20" x="458.447266"/>
     <use xlink:href="#DejaVuSans-2014" x="490.234375"/>
     <use xlink:href="#DejaVuSans-20" x="590.234375"/>
     <use xlink:href="#DejaVuSans-46" x="622.021484"/>
     <use xlink:href="#DejaVuSans-41" x="670.416016"/>
     <use xlink:href="#DejaVuSans-49" x="738.824219"/>
     <use xlink:href="#DejaVuSans-4c" x="768.316406"/>
     <use xlink:href="#DejaVuSans-45" x="824.029297"/>
     <use xlink:href="#DejaVuSans-44" x="887.212891"/>
     <use xlink:href="#DejaVuSans-3a" x="964.214844"/>
     <use xlink:href="#DejaVuSans-20" x="997.90625"/>
     <use xlink:href="#DejaVuSans-6c" x="1029.693359"/>
     <use xlink:href="#DejaVuSans-61" x="1057.476562"/>
     <use xlink:href="#DejaVuSans-73" x="1118.755859"/>
     <use xlink:href="#DejaVuSans-74" x="1170.855469"/>
     <use xlink:href="#DejaVuSans-20" x="1210.064453"/>
     <use xlink:href="#DejaVuSans-73" x="1241.851562"/>
     <use xlink:href="#DejaVuSans-61" x="1293.951172"/>
     <use xlink:href="#DejaVuSans-76" x="1355.230469"/>
     <use xlink:href="#DejaVuSans-65" x="1414.410156"/>
     <use xlink:href="#DejaVuSans-64" x="1475.933594"/>
     <use xlink:href="#DejaVuSans-20" x="1539.410156"/>
     <use xlink:href="#DejaVuSans-73" x="1571.197266"/>
     <use xlink:href="#DejaVuSans-74" x="1623.296875"/>
     <use xlink:href="#DejaVuSans-61" x="1662.505859"/>
     <use xlink:href="#DejaVuSans-74" x="1723.785156"/>
     <use xlink:href="#DejaVuSans-65" x="1762.994141"/>
    </g>
   </g>
  </g>
  <g id="axes_3">
   <g id="patch_13">
    <path d="M 640.460107 311.826537 
L 925.79976 311.826537 
L 925.79976 13.5169 
L 640.460107 13.5169 
z
" style="fill: #ffffff"/>
   </g>
   <g id="matplotlib.axis_5">
    <g id="xtick_19">
     <g id="line2d_67">
      <path d="M 653.430092 311.826537 
L 653.430092 13.5169 
" clip-path="url(#pf054153f89)" style="fill: none; stroke: #b0b0b0; stroke-opacity: 0.12; stroke-width: 0.8; stroke-linecap: square"/>
     </g>
     <g id="line2d_68">
      <g>
       <use xlink:href="#m376874ac4f" x="653.430092" y="311.826537" style="stroke: #000000; stroke-width: 0.8"/>
      </g>
     </g>
     <g id="text_33">
      <!-- 0.30 -->
      <g transform="translate(645.637123 324.145443) scale(0.07 -0.07)">
       <use xlink:href="#DejaVuSans-30"/>
       <use xlink:href="#DejaVuSans-2e" x="63.623047"/>
       <use xlink:href="#DejaVuSans-33" x="95.410156"/>
       <use xlink:href="#DejaVuSans-30" x="159.033203"/>
      </g>
     </g>
    </g>
    <g id="xtick_20">
     <g id="line2d_69">
      <path d="M 685.855052 311.826537 
L 685.855052 13.5169 
" clip-path="url(#pf054153f89)" style="fill: none; stroke: #b0b0b0; stroke-opacity: 0.12; stroke-width: 0.8; stroke-linecap: square"/>
     </g>
     <g id="line2d_70">
      <g>
       <use xlink:href="#m376874ac4f" x="685.855052" y="311.826537" style="stroke: #000000; stroke-width: 0.8"/>
      </g>
     </g>
     <g id="text_34">
      <!-- 0.35 -->
      <g transform="translate(678.062083 324.145443) scale(0.07 -0.07)">
       <use xlink:href="#DejaVuSans-30"/>
       <use xlink:href="#DejaVuSans-2e" x="63.623047"/>
       <use xlink:href="#DejaVuSans-33" x="95.410156"/>
       <use xlink:href="#DejaVuSans-35" x="159.033203"/>
      </g>
     </g>
    </g>
    <g id="xtick_21">
     <g id="line2d_71">
      <path d="M 718.280013 311.826537 
L 718.280013 13.5169 
" clip-path="url(#pf054153f89)" style="fill: none; stroke: #b0b0b0; stroke-opacity: 0.12; stroke-width: 0.8; stroke-linecap: square"/>
     </g>
     <g id="line2d_72">
      <g>
       <use xlink:href="#m376874ac4f" x="718.280013" y="311.826537" style="stroke: #000000; stroke-width: 0.8"/>
      </g>
     </g>
     <g id="text_35">
      <!-- 0.40 -->
      <g transform="translate(710.487044 324.145443) scale(0.07 -0.07)">
       <use xlink:href="#DejaVuSans-30"/>
       <use xlink:href="#DejaVuSans-2e" x="63.623047"/>
       <use xlink:href="#DejaVuSans-34" x="95.410156"/>
       <use xlink:href="#DejaVuSans-30" x="159.033203"/>
      </g>
     </g>
    </g>
    <g id="xtick_22">
     <g id="line2d_73">
      <path d="M 750.704973 311.826537 
L 750.704973 13.5169 
" clip-path="url(#pf054153f89)" style="fill: none; stroke: #b0b0b0; stroke-opacity: 0.12; stroke-width: 0.8; stroke-linecap: square"/>
     </g>
     <g id="line2d_74">
      <g>
       <use xlink:href="#m376874ac4f" x="750.704973" y="311.826537" style="stroke: #000000; stroke-width: 0.8"/>
      </g>
     </g>
     <g id="text_36">
      <!-- 0.45 -->
      <g transform="translate(742.912004 324.145443) scale(0.07 -0.07)">
       <use xlink:href="#DejaVuSans-30"/>
       <use xlink:href="#DejaVuSans-2e" x="63.623047"/>
       <use xlink:href="#DejaVuSans-34" x="95.410156"/>
       <use xlink:href="#DejaVuSans-35" x="159.033203"/>
      </g>
     </g>
    </g>
    <g id="xtick_23">
     <g id="line2d_75">
      <path d="M 783.129934 311.826537 
L 783.129934 13.5169 
" clip-path="url(#pf054153f89)" style="fill: none; stroke: #b0b0b0; stroke-opacity: 0.12; stroke-width: 0.8; stroke-linecap: square"/>
     </g>
     <g id="line2d_76">
      <g>
       <use xlink:href="#m376874ac4f" x="783.129934" y="311.826537" style="stroke: #000000; stroke-width: 0.8"/>
      </g>
     </g>
     <g id="text_37">
      <!-- 0.50 -->
      <g transform="translate(775.336965 324.145443) scale(0.07 -0.07)">
       <use xlink:href="#DejaVuSans-30"/>
       <use xlink:href="#DejaVuSans-2e" x="63.623047"/>
       <use xlink:href="#DejaVuSans-35" x="95.410156"/>
       <use xlink:href="#DejaVuSans-30" x="159.033203"/>
      </g>
     </g>
    </g>
    <g id="xtick_24">
     <g id="line2d_77">
      <path d="M 815.554894 311.826537 
L 815.554894 13.5169 
" clip-path="url(#pf054153f89)" style="fill: none; stroke: #b0b0b0; stroke-opacity: 0.12; stroke-width: 0.8; stroke-linecap: square"/>
     </g>
     <g id="line2d_78">
      <g>
       <use xlink:href="#m376874ac4f" x="815.554894" y="311.826537" style="stroke: #000000; stroke-width: 0.8"/>
      </g>
     </g>
     <g id="text_38">
      <!-- 0.55 -->
      <g transform="translate(807.761926 324.145443) scale(0.07 -0.07)">
       <use xlink:href="#DejaVuSans-30"/>
       <use xlink:href="#DejaVuSans-2e" x="63.623047"/>
       <use xlink:href="#DejaVuSans-35" x="95.410156"/>
       <use xlink:href="#DejaVuSans-35" x="159.033203"/>
      </g>
     </g>
    </g>
    <g id="xtick_25">
     <g id="line2d_79">
      <path d="M 847.979855 311.826537 
L 847.979855 13.5169 
" clip-path="url(#pf054153f89)" style="fill: none; stroke: #b0b0b0; stroke-opacity: 0.12; stroke-width: 0.8; stroke-linecap: square"/>
     </g>
     <g id="line2d_80">
      <g>
       <use xlink:href="#m376874ac4f" x="847.979855" y="311.826537" style="stroke: #000000; stroke-width: 0.8"/>
      </g>
     </g>
     <g id="text_39">
      <!-- 0.60 -->
      <g transform="translate(840.186886 324.145443) scale(0.07 -0.07)">
       <use xlink:href="#DejaVuSans-30"/>
       <use xlink:href="#DejaVuSans-2e" x="63.623047"/>
       <use xlink:href="#DejaVuSans-36" x="95.410156"/>
       <use xlink:href="#DejaVuSans-30" x="159.033203"/>
      </g>
     </g>
    </g>
    <g id="xtick_26">
     <g id="line2d_81">
      <path d="M 880.404815 311.826537 
L 880.404815 13.5169 
" clip-path="url(#pf054153f89)" style="fill: none; stroke: #b0b0b0; stroke-opacity: 0.12; stroke-width: 0.8; stroke-linecap: square"/>
     </g>
     <g id="line2d_82">
      <g>
       <use xlink:href="#m376874ac4f" x="880.404815" y="311.826537" style="stroke: #000000; stroke-width: 0.8"/>
      </g>
     </g>
     <g id="text_40">
      <!-- 0.65 -->
      <g transform="translate(872.611847 324.145443) scale(0.07 -0.07)">
       <use xlink:href="#DejaVuSans-30"/>
       <use xlink:href="#DejaVuSans-2e" x="63.623047"/>
       <use xlink:href="#DejaVuSans-36" x="95.410156"/>
       <use xlink:href="#DejaVuSans-35" x="159.033203"/>
      </g>
     </g>
    </g>
    <g id="xtick_27">
     <g id="line2d_83">
      <path d="M 912.829776 311.826537 
L 912.829776 13.5169 
" clip-path="url(#pf054153f89)" style="fill: none; stroke: #b0b0b0; stroke-opacity: 0.12; stroke-width: 0.8; stroke-linecap: square"/>
     </g>
     <g id="line2d_84">
      <g>
       <use xlink:href="#m376874ac4f" x="912.829776" y="311.826537" style="stroke: #000000; stroke-width: 0.8"/>
      </g>
     </g>
     <g id="text_41">
      <!-- 0.70 -->
      <g transform="translate(905.036807 324.145443) scale(0.07 -0.07)">
       <use xlink:href="#DejaVuSans-30"/>
       <use xlink:href="#DejaVuSans-2e" x="63.623047"/>
       <use xlink:href="#DejaVuSans-37" x="95.410156"/>
       <use xlink:href="#DejaVuSans-30" x="159.033203"/>
      </g>
     </g>
    </g>
   </g>
   <g id="matplotlib.axis_6">
    <g id="ytick_11">
     <g id="line2d_85">
      <path d="M 640.460107 298.856553 
L 925.79976 298.856553 
" clip-path="url(#pf054153f89)" style="fill: none; stroke: #b0b0b0; stroke-opacity: 0.12; stroke-width: 0.8; stroke-linecap: square"/>
     </g>
     <g id="line2d_86">
      <g>
       <use xlink:href="#mcf68c06ed4" x="640.460107" y="298.856553" style="stroke: #000000; stroke-width: 0.8"/>
      </g>
     </g>
     <g id="text_42">
      <!-- 0.3 -->
      <g transform="translate(622.32792 301.516006) scale(0.07 -0.07)">
       <use xlink:href="#DejaVuSans-30"/>
       <use xlink:href="#DejaVuSans-2e" x="63.623047"/>
       <use xlink:href="#DejaVuSans-33" x="95.410156"/>
      </g>
     </g>
    </g>
    <g id="ytick_12">
     <g id="line2d_87">
      <path d="M 640.460107 234.006632 
L 925.79976 234.006632 
" clip-path="url(#pf054153f89)" style="fill: none; stroke: #b0b0b0; stroke-opacity: 0.12; stroke-width: 0.8; stroke-linecap: square"/>
     </g>
     <g id="line2d_88">
      <g>
       <use xlink:href="#mcf68c06ed4" x="640.460107" y="234.006632" style="stroke: #000000; stroke-width: 0.8"/>
      </g>
     </g>
     <g id="text_43">
      <!-- 0.4 -->
      <g transform="translate(622.32792 236.666085) scale(0.07 -0.07)">
       <use xlink:href="#DejaVuSans-30"/>
       <use xlink:href="#DejaVuSans-2e" x="63.623047"/>
       <use xlink:href="#DejaVuSans-34" x="95.410156"/>
      </g>
     </g>
    </g>
    <g id="ytick_13">
     <g id="line2d_89">
      <path d="M 640.460107 169.156711 
L 925.79976 169.156711 
" clip-path="url(#pf054153f89)" style="fill: none; stroke: #b0b0b0; stroke-opacity: 0.12; stroke-width: 0.8; stroke-linecap: square"/>
     </g>
     <g id="line2d_90">
      <g>
       <use xlink:href="#mcf68c06ed4" x="640.460107" y="169.156711" style="stroke: #000000; stroke-width: 0.8"/>
      </g>
     </g>
     <g id="text_44">
      <!-- 0.5 -->
      <g transform="translate(622.32792 171.816164) scale(0.07 -0.07)">
       <use xlink:href="#DejaVuSans-30"/>
       <use xlink:href="#DejaVuSans-2e" x="63.623047"/>
       <use xlink:href="#DejaVuSans-35" x="95.410156"/>
      </g>
     </g>
    </g>
    <g id="ytick_14">
     <g id="line2d_91">
      <path d="M 640.460107 104.30679 
L 925.79976 104.30679 
" clip-path="url(#pf054153f89)" style="fill: none; stroke: #b0b0b0; stroke-opacity: 0.12; stroke-width: 0.8; stroke-linecap: square"/>
     </g>
     <g id="line2d_92">
      <g>
       <use xlink:href="#mcf68c06ed4" x="640.460107" y="104.30679" style="stroke: #000000; stroke-width: 0.8"/>
      </g>
     </g>
     <g id="text_45">
      <!-- 0.6 -->
      <g transform="translate(622.32792 106.966243) scale(0.07 -0.07)">
       <use xlink:href="#DejaVuSans-30"/>
       <use xlink:href="#DejaVuSans-2e" x="63.623047"/>
       <use xlink:href="#DejaVuSans-36" x="95.410156"/>
      </g>
     </g>
    </g>
    <g id="ytick_15">
     <g id="line2d_93">
      <path d="M 640.460107 39.456869 
L 925.79976 39.456869 
" clip-path="url(#pf054153f89)" style="fill: none; stroke: #b0b0b0; stroke-opacity: 0.12; stroke-width: 0.8; stroke-linecap: square"/>
     </g>
     <g id="line2d_94">
      <g>
       <use xlink:href="#mcf68c06ed4" x="640.460107" y="39.456869" style="stroke: #000000; stroke-width: 0.8"/>
      </g>
     </g>
     <g id="text_46">
      <!-- 0.7 -->
      <g transform="translate(622.32792 42.116322) scale(0.07 -0.07)">
       <use xlink:href="#DejaVuSans-30"/>
       <use xlink:href="#DejaVuSans-2e" x="63.623047"/>
       <use xlink:href="#DejaVuSans-37" x="95.410156"/>
      </g>
     </g>
    </g>
   </g>
   <g id="line2d_95">
    <path d="M 840.433661 199.298354 
L 839.58579 198.121314 
L 838.560696 197.065444 
L 837.36594 196.138531 
L 836.010333 195.347411 
L 834.276982 194.616987 
L 832.363327 194.078545 
L 830.287798 193.73727 
L 828.070383 193.596449 
L 825.732437 193.657438 
L 822.986248 193.96647 
L 820.1495 194.526354 
L 817.256763 195.330267 
L 814.343286 196.368414 
L 811.444574 197.628143 
L 808.59595 199.094103 
L 805.832129 200.748429 
L 803.18679 202.570962 
L 800.692169 204.539493 
L 798.378667 206.630033 
L 796.274475 208.817106 
L 794.405235 211.07406 
L 792.793726 213.373393 
L 791.459586 215.687084 
L 790.51976 217.732957 
L 789.821036 219.748193 
L 789.370142 221.713383 
L 789.171423 223.609601 
L 789.22679 225.418587 
L 789.483308 226.916172 
L 789.932099 228.322571 
L 790.569852 229.627413 
L 791.391864 230.821074 
L 792.392073 231.894752 
L 793.563102 232.840529 
L 794.896316 233.651429 
L 796.381882 234.321473 
L 798.252124 234.90847 
L 800.289001 235.29942 
L 802.472897 235.490557 
L 804.782779 235.480042 
L 807.504252 235.227375 
L 810.32383 234.722753 
L 813.207155 233.972324 
L 816.119089 232.985234 
L 819.024148 231.773512 
L 821.88693 230.351922 
L 824.67255 228.73779 
L 827.347062 226.950785 
L 829.877873 225.012683 
L 832.234144 222.947103 
L 834.38716 220.779215 
L 836.310685 218.535437 
L 837.981279 216.243113 
L 839.378584 213.930177 
L 840.377361 211.879716 
L 841.137083 209.854987 
L 841.650436 207.875489 
L 841.912474 205.960287 
L 841.920674 204.127824 
L 841.7195 202.606187 
L 841.325368 201.172646 
L 840.741185 199.837772 
L 840.433661 199.298354 
L 840.433661 199.298354 
" clip-path="url(#pf054153f89)" style="fill: none; stroke-dasharray: 6.29,2.72; stroke-dashoffset: 0; stroke: #263747; stroke-width: 1.7"/>
   </g>
   <g id="line2d_96">
    <path d="M 882.836799 143.950455 
L 882.513866 142.932268 
L 881.975358 141.980324 
L 881.23696 141.112705 
L 880.321008 140.343642 
L 878.872512 139.487204 
L 877.236194 138.829792 
L 875.497241 138.360779 
L 873.309993 137.994569 
L 867.474472 137.224686 
L 866.66276 136.795854 
L 866.058583 136.16175 
L 865.624077 135.294373 
L 865.240071 133.872617 
L 863.879144 127.516547 
L 863.236844 125.836328 
L 862.414007 124.287708 
L 861.410019 122.955521 
L 860.547567 122.143961 
L 859.605053 121.522472 
L 858.599307 121.110764 
L 857.550211 120.921436 
L 856.479543 120.959395 
L 855.409739 121.221608 
L 854.362617 121.697198 
L 853.358152 122.367894 
L 852.114058 123.521801 
L 851.004652 124.903861 
L 850.043726 126.428388 
L 849.045225 128.39568 
L 846.679145 133.394537 
L 846.031012 134.060749 
L 845.256292 134.464606 
L 844.315363 134.631344 
L 842.869293 134.576335 
L 836.003909 133.894388 
L 834.212733 134.015447 
L 832.503015 134.354097 
L 830.955026 134.934264 
L 829.945722 135.531218 
L 829.097649 136.261512 
L 828.433672 137.114147 
L 827.970638 138.073192 
L 827.718512 139.118743 
L 827.679826 140.228053 
L 827.849444 141.3768 
L 828.214675 142.540394 
L 828.9708 144.074533 
L 829.974844 145.544349 
L 831.456941 147.235194 
L 833.33805 149.000806 
L 836.15564 151.572544 
L 836.757562 152.39446 
L 837.075586 153.226712 
L 837.106761 154.117111 
L 836.872423 155.108546 
L 836.274426 156.538985 
L 834.074569 161.351209 
L 833.418068 163.503776 
L 833.124205 165.245651 
L 833.095543 166.932911 
L 833.269733 168.120136 
L 833.619792 169.208043 
L 834.14552 170.169956 
L 834.839967 170.982819 
L 835.68994 171.628398 
L 836.676794 172.094274 
L 837.777462 172.374583 
L 838.965678 172.470465 
L 840.213312 172.390186 
L 841.919942 172.036307 
L 843.616868 171.450293 
L 845.639673 170.498628 
L 848.475344 168.850598 
L 850.483677 167.738431 
L 851.461348 167.394513 
L 852.357018 167.320725 
L 853.214679 167.537053 
L 854.081668 168.038938 
L 855.247072 169.021614 
L 859.455793 172.859572 
L 860.934544 173.889552 
L 862.494573 174.730491 
L 864.089812 175.308836 
L 865.276167 175.535431 
L 866.425834 175.56571 
L 867.513299 175.390622 
L 868.514232 175.008648 
L 869.406786 174.425728 
L 870.172812 173.654863 
L 870.798905 172.715402 
L 871.27724 171.632051 
L 871.606137 170.433666 
L 871.821344 168.711753 
L 871.808847 166.919567 
L 871.54636 164.695125 
L 870.947234 161.832894 
L 870.401901 159.175131 
L 870.35634 158.121474 
L 870.537971 157.23208 
L 870.981477 156.472615 
L 871.699477 155.797507 
L 872.96382 154.993206 
L 878.253341 151.957047 
L 879.67238 150.847876 
L 880.923521 149.605148 
L 881.924162 148.252245 
L 882.468322 147.187203 
L 882.810564 146.100527 
L 882.935859 145.014024 
L 882.836799 143.950455 
L 882.836799 143.950455 
" clip-path="url(#pf054153f89)" style="fill: none; stroke-dasharray: 6.29,2.72; stroke-dashoffset: 0; stroke: #263747; stroke-width: 1.7"/>
   </g>
   <g id="line2d_97">
    <path d="M 877.682451 149.714352 
L 877.570266 147.430769 
L 877.234791 145.169179 
L 876.679256 142.951361 
L 875.909013 140.798674 
L 874.931478 138.73185 
L 873.756066 136.770794 
L 872.394097 134.934391 
L 870.858687 133.240328 
L 869.164623 131.704918 
L 867.32822 130.342949 
L 865.367164 129.167537 
L 863.30034 128.190002 
L 861.147654 127.419758 
L 858.929836 126.864224 
L 856.668245 126.528749 
L 854.384663 126.416563 
L 852.10108 126.528749 
L 849.83949 126.864224 
L 847.621672 127.419758 
L 845.468985 128.190002 
L 843.402161 129.167537 
L 841.441105 130.342949 
L 839.604702 131.704918 
L 837.910638 133.240328 
L 836.375229 134.934391 
L 835.01326 136.770794 
L 833.837848 138.73185 
L 832.860313 140.798674 
L 832.090069 142.951361 
L 831.534535 145.169179 
L 831.199059 147.430769 
L 831.086874 149.714352 
L 831.199059 151.997934 
L 831.534535 154.259525 
L 832.090069 156.477343 
L 832.860313 158.630029 
L 833.837848 160.696853 
L 835.01326 162.65791 
L 836.375229 164.494312 
L 837.910638 166.188376 
L 839.604702 167.723786 
L 841.441105 169.085755 
L 843.402161 170.261167 
L 845.468985 171.238702 
L 847.621672 172.008945 
L 849.83949 172.56448 
L 852.10108 172.899955 
L 854.384663 173.01214 
L 856.668245 172.899955 
L 858.929836 172.56448 
L 861.147654 172.008945 
L 863.30034 171.238702 
L 865.367164 170.261167 
L 867.32822 169.085755 
L 869.164623 167.723786 
L 870.858687 166.188376 
L 872.394097 164.494312 
L 873.756066 162.65791 
L 874.931478 160.696853 
L 875.909013 158.630029 
L 876.679256 156.477343 
L 877.234791 154.259525 
L 877.570266 151.997934 
L 877.682451 149.714352 
L 877.682451 149.714352 
" clip-path="url(#pf054153f89)" style="fill: none; stroke: #087f8c; stroke-width: 1.7; stroke-linecap: square"/>
   </g>
   <g id="line2d_98">
    <path d="M 832.511641 215.192452 
L 838.410781 212.922691 
L 842.025958 211.237749 
L 844.741363 209.723098 
L 847.271893 208.027635 
L 849.451859 206.208326 
L 850.636204 204.964142 
L 851.56134 203.725668 
L 852.197498 202.521417 
L 852.523189 201.380557 
L 852.525964 200.331684 
L 852.202834 199.401579 
L 851.560326 198.61401 
L 850.614199 197.98862 
L 849.388804 197.539971 
L 847.916145 197.276779 
L 846.234654 197.201382 
L 844.387758 197.309471 
L 842.422275 197.590099 
L 839.357884 198.29512 
L 836.297778 199.266179 
L 833.391465 200.398937 
L 829.969445 201.956222 
L 824.972347 204.327935 
L 824.177515 204.454999 
L 823.85478 204.314466 
L 823.671717 203.992836 
L 823.601731 203.187655 
L 823.797564 201.124429 
L 824.044926 197.949425 
L 823.968649 195.784095 
L 823.722244 194.295836 
L 823.303948 193.006021 
L 822.724973 191.961734 
L 822.010156 191.181807 
L 821.192345 190.656829 
L 820.306541 190.352241 
L 819.073691 190.193963 
L 815.365516 189.977616 
L 813.788505 189.523437 
L 810.002296 188.229725 
L 808.941972 188.144179 
L 807.930868 188.327088 
L 807.308632 188.632464 
L 806.746637 189.102733 
L 806.261206 189.747611 
L 805.86791 190.570835 
L 805.580657 191.569713 
L 805.410793 192.734958 
L 805.39237 194.758617 
L 805.66374 197.041706 
L 806.208882 199.481468 
L 806.985263 201.958586 
L 808.259166 205.10221 
L 809.601383 207.806398 
L 811.535505 211.455308 
L 811.345833 211.458357 
L 810.320665 210.947584 
L 806.516277 208.960115 
L 803.44455 207.643583 
L 800.907587 206.76612 
L 798.320977 206.081956 
L 795.825473 205.655539 
L 793.554396 205.524247 
L 791.622421 205.697394 
L 790.566916 205.974554 
L 789.718397 206.369263 
L 789.08638 206.86726 
L 788.672514 207.451625 
L 788.470633 208.103777 
L 788.467125 208.804502 
L 788.641606 209.534957 
L 789.178417 210.648559 
L 790.237265 212.093178 
L 793.020768 215.466677 
L 793.297325 216.276592 
L 793.270089 217.095196 
L 792.943313 217.957967 
L 792.110696 219.227546 
L 789.214791 223.125187 
L 788.51637 224.429165 
L 788.056049 225.726876 
L 787.89542 226.967923 
L 787.9733 227.739009 
L 788.203773 228.449289 
L 788.584325 229.087477 
L 789.106968 229.645001 
L 790.127822 230.319343 
L 791.37749 230.798375 
L 792.780765 231.098428 
L 794.749655 231.281227 
L 799.774472 231.568238 
L 800.618625 231.869942 
L 801.295662 232.336619 
L 801.837531 232.972589 
L 802.427352 234.050631 
L 803.774363 236.877973 
L 804.375531 237.709673 
L 805.090095 238.37343 
L 805.918192 238.816183 
L 806.845853 239.003313 
L 807.847807 238.922705 
L 808.891514 238.586488 
L 809.941894 238.030249 
L 811.296887 237.045018 
L 813.400501 235.143577 
L 814.669301 234.094795 
L 815.365516 233.721136 
L 816.042627 233.576145 
L 816.727873 233.661473 
L 817.696295 234.089908 
L 821.810721 236.439446 
L 822.742653 236.636208 
L 823.621993 236.596563 
L 824.412742 236.298032 
L 825.084698 235.741935 
L 825.617838 234.952717 
L 826.005626 233.974873 
L 826.31387 232.481792 
L 826.458132 230.539197 
L 826.62215 227.922756 
L 826.915355 227.029303 
L 827.296394 226.551592 
L 827.828876 226.213043 
L 828.754817 225.908518 
L 831.526629 225.150637 
L 832.229212 224.745617 
L 832.755617 224.215049 
L 833.056579 223.559701 
L 833.104037 222.796337 
L 832.896431 221.954872 
L 832.461488 221.073853 
L 831.630047 219.909078 
L 829.695036 217.498091 
L 829.606938 216.948964 
L 829.767845 216.610957 
L 830.128957 216.281469 
L 831.073799 215.771022 
L 832.511641 215.192452 
L 832.511641 215.192452 
" clip-path="url(#pf054153f89)" style="fill: none; stroke: #087f8c; stroke-width: 1.7; stroke-linecap: square"/>
   </g>
   <g id="patch_14">
    <path d="M 640.460107 311.826537 
L 640.460107 13.5169 
" style="fill: none; stroke: #000000; stroke-width: 0.8; stroke-linejoin: miter; stroke-linecap: square"/>
   </g>
   <g id="patch_15">
    <path d="M 925.79976 311.826537 
L 925.79976 13.5169 
" style="fill: none; stroke: #000000; stroke-width: 0.8; stroke-linejoin: miter; stroke-linecap: square"/>
   </g>
   <g id="patch_16">
    <path d="M 640.460107 311.826537 
L 925.79976 311.826537 
" style="fill: none; stroke: #000000; stroke-width: 0.8; stroke-linejoin: miter; stroke-linecap: square"/>
   </g>
   <g id="patch_17">
    <path d="M 640.460107 13.5169 
L 925.79976 13.5169 
" style="fill: none; stroke: #000000; stroke-width: 0.8; stroke-linejoin: miter; stroke-linecap: square"/>
   </g>
   <g id="text_47">
    <!-- Guarded g — FAIL -->
    <g transform="translate(729.679309 7.5169) scale(0.12 -0.12)">
     <defs>
      <path id="DejaVuSans-47" d="M 3809 666 
L 3809 1919 
L 2778 1919 
L 2778 2438 
L 4434 2438 
L 4434 434 
Q 4069 175 3628 42 
Q 3188 -91 2688 -91 
Q 1594 -91 976 548 
Q 359 1188 359 2328 
Q 359 3472 976 4111 
Q 1594 4750 2688 4750 
Q 3144 4750 3555 4637 
Q 3966 4525 4313 4306 
L 4313 3634 
Q 3963 3931 3569 4081 
Q 3175 4231 2741 4231 
Q 1884 4231 1454 3753 
Q 1025 3275 1025 2328 
Q 1025 1384 1454 906 
Q 1884 428 2741 428 
Q 3075 428 3337 486 
Q 3600 544 3809 666 
z
" transform="scale(0.015625)"/>
     </defs>
     <use xlink:href="#DejaVuSans-47"/>
     <use xlink:href="#DejaVuSans-75" x="77.490234"/>
     <use xlink:href="#DejaVuSans-61" x="140.869141"/>
     <use xlink:href="#DejaVuSans-72" x="202.148438"/>
     <use xlink:href="#DejaVuSans-64" x="241.511719"/>
     <use xlink:href="#DejaVuSans-65" x="304.988281"/>
     <use xlink:href="#DejaVuSans-64" x="366.511719"/>
     <use xlink:href="#DejaVuSans-20" x="429.988281"/>
     <use xlink:href="#DejaVuSans-67" x="461.775391"/>
     <use xlink:href="#DejaVuSans-20" x="525.251953"/>
     <use xlink:href="#DejaVuSans-2014" x="557.039062"/>
     <use xlink:href="#DejaVuSans-20" x="657.039062"/>
     <use xlink:href="#DejaVuSans-46" x="688.826172"/>
     <use xlink:href="#DejaVuSans-41" x="737.220703"/>
     <use xlink:href="#DejaVuSans-49" x="805.628906"/>
     <use xlink:href="#DejaVuSans-4c" x="835.121094"/>
    </g>
   </g>
  </g>
 </g>
 <defs>
  <clipPath id="p636ffb8ea9">
   <rect x="21.132427" y="13.5169" width="285.339652" height="298.309637"/>
  </clipPath>
  <clipPath id="p9482fd21cc">
   <rect x="330.796267" y="13.5169" width="285.339652" height="298.309637"/>
  </clipPath>
  <clipPath id="pf054153f89">
   <rect x="640.460107" y="13.5169" width="285.339652" height="298.309637"/>
  </clipPath>
 </defs>
</svg>
